<svg width="25" height="29" viewBox="0 0 25 29" fill="none" xmlns="http://www.w3.org/2000/svg">
<path d="M9.85126 2.37741H14.976C15.2025 2.37741 15.4198 2.46957 15.5799 2.63362C15.7401 2.79766 15.8301 3.02015 15.8301 3.25215V5.00163H8.99714V3.25215C8.99714 3.02015 9.08713 2.79766 9.24731 2.63362C9.40749 2.46957 9.62474 2.37741 9.85126 2.37741ZM17.5384 5.00163V3.25215C17.5384 2.55616 17.2684 1.88868 16.7879 1.39655C16.3073 0.904409 15.6556 0.62793 14.976 0.62793L9.85126 0.62793C9.17168 0.62793 8.51994 0.904409 8.0394 1.39655C7.55886 1.88868 7.2889 2.55616 7.2889 3.25215V5.00163H3.02855C3.02285 5.00158 3.01716 5.00158 3.01146 5.00163H1.31005C1.08353 5.00163 0.866278 5.09379 0.706099 5.25784C0.54592 5.42188 0.455933 5.64438 0.455933 5.87637C0.455933 6.10837 0.54592 6.33086 0.706099 6.49491C0.866278 6.65895 1.08353 6.75111 1.31005 6.75111H2.22909L3.68622 25.4006C3.75493 26.2774 4.14361 27.0956 4.77484 27.6921C5.40607 28.2886 6.23354 28.6198 7.09245 28.6196H17.7348C18.5937 28.6198 19.4212 28.2886 20.0524 27.6921C20.6836 27.0956 21.0723 26.2774 21.141 25.4006L22.5982 6.75111H23.5172C23.7437 6.75111 23.961 6.65895 24.1212 6.49491C24.2813 6.33086 24.3713 6.10837 24.3713 5.87637C24.3713 5.64438 24.2813 5.42188 24.1212 5.25784C23.961 5.09379 23.7437 5.00163 23.5172 5.00163H21.8175C21.8118 5.00158 21.8061 5.00158 21.8004 5.00163H17.5384ZM20.8831 6.75111L19.4379 25.2606C19.4036 25.699 19.2092 26.1081 18.8936 26.4064C18.578 26.7047 18.1643 26.8702 17.7348 26.8701H7.09245C6.663 26.8702 6.24926 26.7047 5.93365 26.4064C5.61803 26.1081 5.42369 25.699 5.38934 25.2606L3.94416 6.75111H20.8831ZM8.09348 8.50059C8.31954 8.48721 8.54153 8.56631 8.71067 8.7205C8.8798 8.87468 8.98223 9.09134 8.99544 9.32285L9.84956 24.1934C9.85853 24.4222 9.77955 24.6455 9.62956 24.8153C9.47958 24.9851 9.27056 25.088 9.04738 25.1017C8.8242 25.1154 8.60466 25.039 8.43589 24.8888C8.26712 24.7386 8.16259 24.5267 8.14473 24.2984L7.2889 9.42782C7.28197 9.3129 7.29725 9.19771 7.33388 9.08885C7.37051 8.98 7.42776 8.87962 7.50235 8.79348C7.57694 8.70733 7.66741 8.63712 7.76855 8.58686C7.8697 8.5366 7.97954 8.50728 8.09177 8.50059H8.09348ZM16.7338 8.50059C16.846 8.50728 16.9558 8.5366 17.057 8.58686C17.1581 8.63712 17.2486 8.70733 17.3232 8.79348C17.3978 8.87962 17.455 8.98 17.4917 9.08885C17.5283 9.19771 17.5436 9.3129 17.5366 9.42782L16.6825 24.2984C16.678 24.4146 16.6508 24.5288 16.6027 24.6342C16.5545 24.7395 16.4863 24.834 16.402 24.912C16.3178 24.9901 16.2192 25.0501 16.112 25.0886C16.0048 25.1272 15.8912 25.1434 15.7778 25.1365C15.6644 25.1295 15.5536 25.0994 15.4517 25.048C15.3497 24.9966 15.2589 24.9249 15.1844 24.8371C15.1099 24.7492 15.0532 24.6471 15.0177 24.5366C14.9822 24.4261 14.9686 24.3094 14.9777 24.1934L15.8318 9.32285C15.845 9.09134 15.9475 8.87468 16.1166 8.7205C16.2857 8.56631 16.5077 8.48721 16.7338 8.50059ZM12.4136 8.50059C12.6402 8.50059 12.8574 8.59275 13.0176 8.7568C13.1778 8.92084 13.2677 9.14334 13.2677 9.37533V24.2459C13.2677 24.4779 13.1778 24.7004 13.0176 24.8645C12.8574 25.0285 12.6402 25.1207 12.4136 25.1207C12.1871 25.1207 11.9699 25.0285 11.8097 24.8645C11.6495 24.7004 11.5595 24.4779 11.5595 24.2459V9.37533C11.5595 9.14334 11.6495 8.92084 11.8097 8.7568C11.9699 8.59275 12.1871 8.50059 12.4136 8.50059Z" fill="white"/>
</svg>
