<svg width="78" height="76" viewBox="0 0 78 76" fill="none" xmlns="http://www.w3.org/2000/svg">
<rect x="1.84579" y="1" width="74.3364" height="74" rx="11" fill="#003441" stroke="#D9D9D9" stroke-width="2"/>
<g clip-path="url(#clip0_885_436)">
<path fill-rule="evenodd" clip-rule="evenodd" d="M22 17.2C20.727 17.2 19.5061 17.7057 18.6059 18.6059C17.7057 19.5061 17.2 20.727 17.2 22V30H14V22C14 19.8783 14.8429 17.8434 16.3431 16.3431C17.8434 14.8429 19.8783 14 22 14L30 14V17.2H22ZM54 17.2H46V14H54C56.1217 14 58.1566 14.8429 59.6569 16.3431C61.1571 17.8434 62 19.8783 62 22V30H58.8V22C58.8 20.727 58.2943 19.5061 57.3941 18.6059C56.4939 17.7057 55.273 17.2 54 17.2ZM55.6 39.6H20.4V36.4H55.6V39.6ZM14 54V46H17.2V54C17.2 55.273 17.7057 56.4939 18.6059 57.3941C19.5061 58.2943 20.727 58.8 22 58.8H30V62H22C19.8783 62 17.8434 61.1571 16.3431 59.6569C14.8429 58.1566 14 56.1217 14 54ZM58.8 54V46H62V54C62 56.1217 61.1571 58.1566 59.6569 59.6569C58.1566 61.1571 56.1217 62 54 62H46V58.8H54C55.273 58.8 56.4939 58.2943 57.3941 57.3941C58.2943 56.4939 58.8 55.273 58.8 54Z" fill="#BF8148"/>
</g>
<defs>
<clipPath id="clip0_885_436">
<rect width="48" height="48" fill="white" transform="translate(14 14)"/>
</clipPath>
</defs>
</svg>
