<svg width="430" height="932" viewBox="0 0 430 932" fill="none" xmlns="http://www.w3.org/2000/svg">
<g clip-path="url(#clip0_324_2460)">
<rect width="430" height="932" fill="white"/>
<g clip-path="url(#clip1_324_2460)">
<path opacity="0.35" d="M377.52 16.0667H392.535C393.613 16.0667 394.487 16.9406 394.487 18.0187V23.4242C394.487 24.5023 393.613 25.3762 392.535 25.3762H377.52C376.442 25.3762 375.568 24.5023 375.568 23.4242V18.0187C375.568 16.9406 376.442 16.0667 377.52 16.0667Z" stroke="white" stroke-width="0.900926"/>
<path opacity="0.4" d="M395.839 18.9197V22.5234C396.564 22.2182 397.035 21.5082 397.035 20.7215C397.035 19.9349 396.564 19.2249 395.839 18.9197" fill="white"/>
<path d="M376.919 18.409C376.919 17.8617 377.363 17.418 377.91 17.418H392.145C392.692 17.418 393.136 17.8617 393.136 18.409V23.0337C393.136 23.5811 392.692 24.0248 392.145 24.0248H377.91C377.363 24.0248 376.919 23.5811 376.919 23.0337V18.409Z" fill="white"/>
<path fill-rule="evenodd" clip-rule="evenodd" d="M363.704 17.6655C365.7 17.6656 367.62 18.4326 369.067 19.8082C369.176 19.9144 369.35 19.913 369.458 19.8052L370.499 18.7541C370.553 18.6994 370.584 18.6253 370.583 18.5482C370.583 18.4711 370.552 18.3973 370.497 18.3433C366.699 14.7039 360.708 14.7039 356.911 18.3433C356.856 18.3973 356.824 18.471 356.824 18.5481C356.823 18.6252 356.854 18.6993 356.908 18.7541L357.95 19.8052C358.057 19.9132 358.231 19.9145 358.34 19.8082C359.787 18.4326 361.707 17.6655 363.704 17.6655ZM363.704 21.0851C364.801 21.085 365.859 21.4927 366.672 22.229C366.782 22.3335 366.955 22.3312 367.062 22.2239L368.102 21.1728C368.157 21.1176 368.187 21.0429 368.187 20.9651C368.186 20.8874 368.154 20.8133 368.098 20.7593C365.622 18.4561 361.788 18.4561 359.312 20.7593C359.256 20.8133 359.224 20.8875 359.223 20.9652C359.223 21.0429 359.253 21.1177 359.308 21.1728L360.348 22.2239C360.455 22.3312 360.628 22.3335 360.738 22.229C361.551 21.4932 362.608 21.0855 363.704 21.0851ZM365.788 23.3859C365.789 23.4638 365.759 23.539 365.703 23.5936L363.904 25.4095C363.851 25.4629 363.779 25.4929 363.704 25.4929C363.629 25.4929 363.557 25.4629 363.504 25.4095L361.704 23.5936C361.649 23.5389 361.618 23.4638 361.62 23.3858C361.622 23.3079 361.655 23.2341 361.713 23.1818C362.862 22.2098 364.545 22.2098 365.695 23.1818C365.752 23.2341 365.786 23.308 365.788 23.3859Z" fill="white"/>
<path fill-rule="evenodd" clip-rule="evenodd" d="M351.394 15.9165H350.493C349.995 15.9165 349.592 16.3199 349.592 16.8174V24.6255C349.592 25.123 349.995 25.5264 350.493 25.5264H351.394C351.891 25.5264 352.295 25.123 352.295 24.6255V16.8174C352.295 16.3199 351.891 15.9165 351.394 15.9165ZM346.288 18.0187H347.189C347.687 18.0187 348.09 18.422 348.09 18.9196V24.6255C348.09 25.123 347.687 25.5264 347.189 25.5264H346.288C345.791 25.5264 345.388 25.123 345.388 24.6255V18.9196C345.388 18.422 345.791 18.0187 346.288 18.0187ZM342.985 20.1208H342.084C341.587 20.1208 341.183 20.5242 341.183 21.0218V24.6255C341.183 25.123 341.587 25.5264 342.084 25.5264H342.985C343.483 25.5264 343.886 25.123 343.886 24.6255V21.0218C343.886 20.5242 343.483 20.1208 342.985 20.1208ZM338.781 21.9227H337.88C337.382 21.9227 336.979 22.326 336.979 22.8236V24.6255C336.979 25.123 337.382 25.5264 337.88 25.5264H338.781C339.278 25.5264 339.682 25.123 339.682 24.6255V22.8236C339.682 22.326 339.278 21.9227 338.781 21.9227Z" fill="white"/>
<path d="M49.0392 15.9529C46.9739 15.9529 45.5024 17.365 45.5024 19.2983V19.3115C45.5024 21.1195 46.7825 22.4525 48.6103 22.4525C49.9169 22.4525 50.7483 21.786 51.098 21.0338H51.23C51.23 21.1064 51.2234 21.1789 51.2234 21.2515C51.1508 23.0727 50.5107 24.5508 48.9997 24.5508C48.1616 24.5508 47.5744 24.1153 47.3236 23.4488L47.3038 23.3829H45.6278L45.641 23.4554C45.9445 24.9137 47.251 25.9497 48.9997 25.9497C51.3949 25.9497 52.84 24.0493 52.84 20.8424V20.8292C52.84 17.3979 51.0716 15.9529 49.0392 15.9529ZM49.0326 21.1459C47.9505 21.1459 47.1652 20.3541 47.1652 19.2521V19.239C47.1652 18.1766 48.0033 17.3386 49.0524 17.3386C50.1082 17.3386 50.933 18.1898 50.933 19.2785V19.2917C50.933 20.3673 50.1082 21.1459 49.0326 21.1459ZM55.3853 19.5425C55.9924 19.5425 56.4345 19.0806 56.4345 18.4999C56.4345 17.9126 55.9924 17.4573 55.3853 17.4573C54.7848 17.4573 54.3361 17.9126 54.3361 18.4999C54.3361 19.0806 54.7848 19.5425 55.3853 19.5425ZM55.3853 24.4386C55.9924 24.4386 56.4345 23.9833 56.4345 23.3961C56.4345 22.8088 55.9924 22.3535 55.3853 22.3535C54.7848 22.3535 54.3361 22.8088 54.3361 23.3961C54.3361 23.9833 54.7848 24.4386 55.3853 24.4386ZM62.5496 25.7122H64.1795V23.8844H65.4596V22.4789H64.1795V16.1904H61.771C60.4777 18.1568 59.1249 20.3475 57.891 22.4921V23.8844H62.5496V25.7122ZM59.4747 22.5184V22.4195C60.3985 20.8028 61.5004 19.041 62.477 17.5497H62.576V22.5184H59.4747ZM68.9551 25.7122H70.6575V16.1904H68.9617L66.474 17.939V19.5425L68.8429 17.8664H68.9551V25.7122Z" fill="white"/>
</g>
<path d="M430 -412H0V258C0 274.569 13.4315 288 30 288H400C416.569 288 430 274.569 430 258V-412Z" fill="#003441"/>
</g>
<defs>
<clipPath id="clip0_324_2460">
<rect width="430" height="932" fill="white"/>
</clipPath>
<clipPath id="clip1_324_2460">
<rect width="430" height="53" fill="white"/>
</clipPath>
</defs>
</svg>
