<svg width="19" height="19" viewBox="0 0 19 19" fill="none" xmlns="http://www.w3.org/2000/svg">
<path d="M8.58479 0.623728C8.96798 -0.0516221 9.94111 -0.051623 10.3243 0.623727L12.6491 4.72105C12.7867 4.96369 13.0195 5.1378 13.2912 5.2013L17.8082 6.25728C18.5353 6.42728 18.8264 7.30537 18.3447 7.87603L15.2421 11.5519C15.0698 11.756 14.9863 12.0206 15.0103 12.2866L15.4459 17.1204C15.5146 17.8826 14.7365 18.4364 14.0389 18.1217L9.86563 16.2398C9.60425 16.122 9.30484 16.122 9.04346 16.2398L4.87023 18.1217C4.17256 18.4364 3.39449 17.8826 3.46318 17.1204L3.89879 12.2866C3.92276 12.0206 3.8393 11.756 3.667 11.5519L0.564399 7.87603C0.0827316 7.30537 0.373778 6.42728 1.10093 6.25728L5.61791 5.2013C5.88957 5.1378 6.12235 4.96369 6.26002 4.72105L8.58479 0.623728Z" fill="#BF8148"/>
</svg>
