<svg width="67" height="71" viewBox="0 0 67 71" fill="none" xmlns="http://www.w3.org/2000/svg">
<ellipse cx="33" cy="32.7332" rx="33" ry="32.5" fill="#BF8148"/>
<g clip-path="url(#clip0_362_2174)">
<path d="M33 59.4207C25.806 59.4207 18.9067 56.6089 13.8197 51.6041C8.7328 46.5992 5.875 39.8111 5.875 32.7332C5.875 25.6552 8.7328 18.8671 13.8197 13.8622C18.9067 8.85736 25.806 6.04565 33 6.04565C40.194 6.04565 47.0933 8.85736 52.1803 13.8622C57.2672 18.8671 60.125 25.6552 60.125 32.7332C60.125 39.8111 57.2672 46.5992 52.1803 51.6041C47.0933 56.6089 40.194 59.4207 33 59.4207ZM33 63.2332C41.2217 63.2332 49.1067 60.0198 54.9203 54.2999C60.7339 48.5801 64 40.8223 64 32.7332C64 24.6441 60.7339 16.8863 54.9203 11.1664C49.1067 5.44654 41.2217 2.23315 33 2.23315C24.7783 2.23315 16.8933 5.44654 11.0797 11.1664C5.26606 16.8863 2 24.6441 2 32.7332C2 40.8223 5.26606 48.5801 11.0797 54.2999C16.8933 60.0198 24.7783 63.2332 33 63.2332Z" fill="black"/>
<path d="M22.3631 24.2923C22.3578 24.4154 22.3782 24.5383 22.4229 24.6534C22.4677 24.7685 22.5359 24.8734 22.6234 24.9616C22.7108 25.0498 22.8157 25.1194 22.9316 25.1663C23.0474 25.2131 23.1718 25.2362 23.297 25.234H26.4939C27.0286 25.234 27.4549 24.8032 27.5246 24.2808C27.8734 21.7798 29.6171 19.9575 32.7249 19.9575C35.3831 19.9575 37.8166 21.2652 37.8166 24.4105C37.8166 26.8314 36.3674 27.9447 34.0773 29.6374C31.4694 31.5017 29.404 33.6787 29.5513 37.2128L29.5629 38.0402C29.5669 38.2903 29.6708 38.5288 29.852 38.7043C30.0333 38.8797 30.2774 38.9781 30.5316 38.978H33.6743C33.9312 38.978 34.1776 38.8776 34.3593 38.6989C34.5409 38.5201 34.643 38.2777 34.643 38.0249V37.6246C34.643 34.8872 35.7009 34.0904 38.5568 31.9592C40.9166 30.194 43.3773 28.2344 43.3773 24.1207C43.3773 18.36 38.4328 15.5769 33.0194 15.5769C28.1098 15.5769 22.7313 17.8263 22.3631 24.2923ZM28.3965 46.2637C28.3965 48.2958 30.0434 49.7979 32.3103 49.7979C34.6701 49.7979 36.2938 48.2958 36.2938 46.2637C36.2938 44.1592 34.6663 42.68 32.3064 42.68C30.0434 42.68 28.3965 44.1592 28.3965 46.2637Z" fill="black"/>
</g>
<ellipse cx="57.0421" cy="61.2915" rx="9.04206" ry="9.05832" fill="black"/>
<path d="M57 66.3724C56.2509 66.3724 55.6129 66.1685 55.0859 65.7609C54.5589 65.3499 54.1563 64.7549 53.8778 63.9761C53.5994 63.1939 53.4602 62.2493 53.4602 61.1422C53.4602 60.0419 53.5994 59.1022 53.8778 58.3234C54.1596 57.5412 54.5639 56.9446 55.0909 56.5336C55.6212 56.1193 56.2576 55.9121 57 55.9121C57.7424 55.9121 58.3771 56.1193 58.9041 56.5336C59.4344 56.9446 59.8388 57.5412 60.1172 58.3234C60.3989 59.1022 60.5398 60.0419 60.5398 61.1422C60.5398 62.2493 60.4006 63.1939 60.1222 63.9761C59.8438 64.7549 59.4411 65.3499 58.9141 65.7609C58.3871 66.1685 57.7491 66.3724 57 66.3724ZM57 65.2786C57.7424 65.2786 58.3191 64.9207 58.7301 64.2047C59.1411 63.4888 59.3466 62.468 59.3466 61.1422C59.3466 60.2606 59.2521 59.5099 59.0632 58.8901C58.8776 58.2703 58.6091 57.798 58.2578 57.4732C57.9098 57.1484 57.4905 56.986 57 56.986C56.2642 56.986 55.6892 57.3489 55.2749 58.0748C54.8606 58.7973 54.6534 59.8198 54.6534 61.1422C54.6534 62.0239 54.7462 62.7729 54.9318 63.3894C55.1174 64.0059 55.3842 64.4749 55.7322 64.7964C56.0836 65.1179 56.5062 65.2786 57 65.2786Z" fill="white"/>
<defs>
<clipPath id="clip0_362_2174">
<rect width="62" height="61" fill="white" transform="translate(2 2.23315)"/>
</clipPath>
</defs>
</svg>
