<svg width="430" height="102" viewBox="0 0 430 102" fill="none" xmlns="http://www.w3.org/2000/svg">
<path d="M0 52C0 40.9543 8.95431 32 20 32H410C421.046 32 430 40.9543 430 52V102H0V52Z" fill="#D9D9D9"/>
<rect x="180.846" y="1" width="74.3364" height="74" rx="11" fill="#003441" stroke="#D9D9D9" stroke-width="2"/>
<g clip-path="url(#clip0_320_742)">
<path fill-rule="evenodd" clip-rule="evenodd" d="M201 17.2C199.727 17.2 198.506 17.7057 197.606 18.6059C196.706 19.5061 196.2 20.727 196.2 22V30H193V22C193 19.8783 193.843 17.8434 195.343 16.3431C196.843 14.8429 198.878 14 201 14L209 14V17.2H201ZM233 17.2H225V14H233C235.122 14 237.157 14.8429 238.657 16.3431C240.157 17.8434 241 19.8783 241 22V30H237.8V22C237.8 20.727 237.294 19.5061 236.394 18.6059C235.494 17.7057 234.273 17.2 233 17.2ZM234.6 39.6H199.4V36.4H234.6V39.6ZM193 54V46H196.2V54C196.2 55.273 196.706 56.4939 197.606 57.3941C198.506 58.2943 199.727 58.8 201 58.8H209V62H201C198.878 62 196.843 61.1571 195.343 59.6569C193.843 58.1566 193 56.1217 193 54ZM237.8 54V46H241V54C241 56.1217 240.157 58.1566 238.657 59.6569C237.157 61.1571 235.122 62 233 62H225V58.8H233C234.273 58.8 235.494 58.2943 236.394 57.3941C237.294 56.4939 237.8 55.273 237.8 54Z" fill="#BF8148"/>
</g>
<line x1="344.098" y1="47" x2="344.098" y2="87" stroke="#003441" stroke-opacity="0.5"/>
<line x1="86.9019" y1="47" x2="86.9019" y2="87" stroke="#003441" stroke-opacity="0.5"/>
<defs>
<clipPath id="clip0_320_742">
<rect width="48" height="48" fill="white" transform="translate(193 14)"/>
</clipPath>
</defs>
</svg>
