<svg width="35" height="33" viewBox="0 0 35 33" fill="none" xmlns="http://www.w3.org/2000/svg">
<path d="M1.52804 21.2V11.6C1.52804 9.05392 2.54419 6.61212 4.35295 4.81178C6.16171 3.01143 8.61492 2 11.1729 2H24.0327C26.5907 2 29.0439 3.01143 30.8527 4.81178C32.6614 6.61212 33.6776 9.05392 33.6776 11.6V21.2C33.6776 23.7461 32.6614 26.1879 30.8527 27.9882C29.0439 29.7886 26.5907 30.8 24.0327 30.8H11.1729C8.61492 30.8 6.16171 29.7886 4.35295 27.9882C2.54419 26.1879 1.52804 23.7461 1.52804 21.2Z" stroke="#003441" stroke-width="2.5"/>
<path d="M19.2103 22V17.52M19.2103 17.52V10.8H23.8029C24.9506 10.8 27.2477 10.8 27.2477 14.16C27.2477 17.52 24.9506 17.52 23.8029 17.52M19.2103 17.52H23.8029M23.8029 17.52L27.2477 22M15.9954 22L14.2738 18L11.1729 10.8L8.07211 18M6.3505 22L8.07211 18M8.07211 18H14.2754" stroke="#003441" stroke-width="2.5" stroke-linecap="round" stroke-linejoin="round"/>
</svg>
