<svg width="64" height="64" viewBox="0 0 64 64" fill="none" xmlns="http://www.w3.org/2000/svg">
<rect width="64" height="64" rx="20" fill="#BF8148"/>
<path d="M50.2857 21.7143H25.1428M20.5714 21.7143H13.7142M50.2857 44.5714H25.1428M20.5714 44.5714H13.7142M38.8571 33.1428H13.7142M50.2857 33.1428H43.4285M22.8571 17.1428C23.4633 17.1428 24.0447 17.3836 24.4733 17.8123C24.902 18.2409 25.1428 18.8223 25.1428 19.4285V24C25.1428 24.6062 24.902 25.1876 24.4733 25.6162C24.0447 26.0449 23.4633 26.2857 22.8571 26.2857C22.2509 26.2857 21.6695 26.0449 21.2408 25.6162C20.8122 25.1876 20.5714 24.6062 20.5714 24V19.4285C20.5714 18.8223 20.8122 18.2409 21.2408 17.8123C21.6695 17.3836 22.2509 17.1428 22.8571 17.1428ZM22.8571 40C23.4633 40 24.0447 40.2408 24.4733 40.6694C24.902 41.0981 25.1428 41.6795 25.1428 42.2857V46.8571C25.1428 47.4633 24.902 48.0447 24.4733 48.4734C24.0447 48.902 23.4633 49.1428 22.8571 49.1428C22.2509 49.1428 21.6695 48.902 21.2408 48.4734C20.8122 48.0447 20.5714 47.4633 20.5714 46.8571V42.2857C20.5714 41.6795 20.8122 41.0981 21.2408 40.6694C21.6695 40.2408 22.2509 40 22.8571 40ZM41.1428 28.5714C41.749 28.5714 42.3304 28.8122 42.759 29.2409C43.1877 29.6695 43.4285 30.2509 43.4285 30.8571V35.4285C43.4285 36.0347 43.1877 36.6161 42.759 37.0448C42.3304 37.4734 41.749 37.7143 41.1428 37.7143C40.5366 37.7143 39.9552 37.4734 39.5266 37.0448C39.0979 36.6161 38.8571 36.0347 38.8571 35.4285V30.8571C38.8571 30.2509 39.0979 29.6695 39.5266 29.2409C39.9552 28.8122 40.5366 28.5714 41.1428 28.5714Z" stroke="white" stroke-linecap="round" stroke-linejoin="round"/>
</svg>
