<svg width="64" height="67" viewBox="0 0 64 67" fill="none" xmlns="http://www.w3.org/2000/svg">
<rect width="64" height="64" rx="20" fill="#A41350"/>
<path d="M52.25 28.25C52.25 33.9875 48.9312 39.875 42.3875 45.7625C39.4161 48.4338 36.1807 50.7959 32.7312 52.8125C32.5072 52.9356 32.2557 53.0001 32 53.0001C31.7443 53.0001 31.4928 52.9356 31.2687 52.8125C30.4625 52.3625 11.75 41.7312 11.75 28.25C11.75 25.8888 12.4929 23.5875 13.8735 21.672C15.2541 19.7565 17.2024 18.324 19.4424 17.5773C21.6824 16.8306 24.1006 16.8077 26.3544 17.5117C28.6082 18.2157 30.5833 19.6111 32 21.5C33.4167 19.6111 35.3918 18.2157 37.6456 17.5117C39.8994 16.8077 42.3176 16.8306 44.5576 17.5773C46.7976 18.324 48.7459 19.7565 50.1265 21.672C51.5071 23.5875 52.25 25.8888 52.25 28.25Z" fill="white"/>
</svg>
