<svg width="64" height="67" viewBox="0 0 64 67" fill="none" xmlns="http://www.w3.org/2000/svg">
<rect width="64" height="64" rx="20" fill="#A41350"/>
<path d="M52.25 25.25C52.25 30.9875 48.9312 36.875 42.3875 42.7625C39.4161 45.4338 36.1807 47.7959 32.7312 49.8125C32.5072 49.9356 32.2557 50.0001 32 50.0001C31.7443 50.0001 31.4928 49.9356 31.2687 49.8125C30.4625 49.3625 11.75 38.7312 11.75 25.25C11.75 22.8888 12.4929 20.5875 13.8735 18.672C15.2541 16.7565 17.2024 15.324 19.4424 14.5773C21.6824 13.8306 24.1006 13.8077 26.3544 14.5117C28.6082 15.2157 30.5833 16.6111 32 18.5C33.4167 16.6111 35.3918 15.2157 37.6456 14.5117C39.8994 13.8077 42.3176 13.8306 44.5576 14.5773C46.7976 15.324 48.7459 16.7565 50.1265 18.672C51.5071 20.5875 52.25 22.8888 52.25 25.25Z" fill="white"/>
</svg>
