<svg width="20" height="19" viewBox="0 0 20 19" fill="none" xmlns="http://www.w3.org/2000/svg">
<path d="M9.13025 0.623728C9.51343 -0.0516221 10.4866 -0.051623 10.8698 0.623727L13.1945 4.72105C13.3322 4.96369 13.565 5.1378 13.8366 5.2013L18.3536 6.25728C19.0808 6.42728 19.3718 7.30537 18.8901 7.87603L15.7875 11.5519C15.6152 11.756 15.5318 12.0206 15.5558 12.2866L15.9914 17.1204C16.0601 17.8826 15.282 18.4364 14.5843 18.1217L10.4111 16.2398C10.1497 16.122 9.8503 16.122 9.58892 16.2398L5.41569 18.1217C4.71802 18.4364 3.93995 17.8826 4.00864 17.1204L4.44424 12.2866C4.46822 12.0206 4.38476 11.756 4.21246 11.5519L1.10985 7.87603C0.628188 7.30537 0.919234 6.42728 1.64639 6.25728L6.16337 5.2013C6.43503 5.1378 6.6678 4.96369 6.80548 4.72105L9.13025 0.623728Z" fill="#7C7C7C"/>
</svg>
