<svg width="33" height="32" viewBox="0 0 33 32" fill="none" xmlns="http://www.w3.org/2000/svg">
<path d="M8.16359 24.6667H12.1823V16.6667H20.2197V24.6667H24.2384V12.6667L16.201 6.66667L8.16359 12.6667V24.6667ZM8.16359 27.3333C7.42683 27.3333 6.79634 27.0724 6.27213 26.5507C5.74702 26.028 5.48446 25.4 5.48446 24.6667V12.6667C5.48446 12.2444 5.57957 11.8444 5.76979 11.4667C5.95911 11.0889 6.22122 10.7778 6.55611 10.5333L14.5935 4.53333C14.8391 4.35556 15.0958 4.22222 15.3637 4.13333C15.6317 4.04444 15.9107 4 16.201 4C16.4912 4 16.7703 4.04444 17.0382 4.13333C17.3061 4.22222 17.5629 4.35556 17.8084 4.53333L25.8458 10.5333C26.1807 10.7778 26.4433 11.0889 26.6335 11.4667C26.8228 11.8444 26.9175 12.2444 26.9175 12.6667V24.6667C26.9175 25.4 26.6554 26.028 26.1312 26.5507C25.6061 27.0724 24.9751 27.3333 24.2384 27.3333H17.5405V19.3333H14.8614V27.3333H8.16359Z" fill="#003441"/>
</svg>
