<svg width="48" height="47" viewBox="0 0 48 47" fill="none" xmlns="http://www.w3.org/2000/svg">
<path d="M24 0.934082C11.2752 0.934082 0.959961 10.9705 0.959961 23.3514C0.959961 35.7323 11.2752 45.7687 24 45.7687C36.7248 45.7687 47.04 35.7323 47.04 23.3514C47.04 10.9705 36.7248 0.934082 24 0.934082ZM33.372 19.2976C33.3816 19.4891 33.384 19.6805 33.384 19.8674C33.384 25.7052 28.8216 32.4327 20.4744 32.4327C18.0079 32.4367 15.5927 31.7475 13.5192 30.4479C13.872 30.4899 14.2344 30.5062 14.6016 30.5062C16.728 30.5062 18.684 29.8034 20.2368 28.6171C19.2905 28.599 18.3736 28.2942 17.6138 27.745C16.8541 27.1958 16.2894 26.4297 15.9984 25.5534C16.6779 25.6791 17.378 25.6528 18.0456 25.4764C17.0185 25.2743 16.0948 24.7328 15.4313 23.9437C14.7677 23.1546 14.405 22.1666 14.4048 21.147V21.0933C15.0168 21.4226 15.7176 21.6234 16.4616 21.6467C15.4987 21.0231 14.817 20.0651 14.5561 18.9686C14.2951 17.8722 14.4745 16.7202 15.0576 15.7482C16.1975 17.1119 17.619 18.2275 19.2301 19.0228C20.8413 19.818 22.6061 20.2752 24.4104 20.3647C24.181 19.4174 24.2797 18.4229 24.6912 17.5357C25.1027 16.6486 25.8039 15.9186 26.6857 15.4592C27.5676 14.9999 28.5808 14.8368 29.5677 14.9955C30.5546 15.1542 31.46 15.6256 32.1432 16.3366C33.1588 16.1411 34.1327 15.7787 35.0232 15.2648C34.6847 16.2879 33.976 17.1567 33.0288 17.7097C33.9284 17.6043 34.8068 17.3689 35.6352 17.0115C35.0267 17.8986 34.2603 18.6728 33.372 19.2976Z" fill="white"/>
</svg>
