<svg width="67" height="71" viewBox="0 0 67 71" fill="none" xmlns="http://www.w3.org/2000/svg">
<ellipse cx="33" cy="32.6166" rx="33" ry="32.5" fill="#BF8148"/>
<g clip-path="url(#clip0_362_2134)">
<path d="M33 59.3041C25.806 59.3041 18.9067 56.4924 13.8197 51.4875C8.7328 46.4826 5.875 39.6945 5.875 32.6166C5.875 25.5386 8.7328 18.7505 13.8197 13.7457C18.9067 8.74079 25.806 5.92908 33 5.92908C40.194 5.92908 47.0933 8.74079 52.1803 13.7457C57.2672 18.7505 60.125 25.5386 60.125 32.6166C60.125 39.6945 57.2672 46.4826 52.1803 51.4875C47.0933 56.4924 40.194 59.3041 33 59.3041ZM33 63.1166C41.2217 63.1166 49.1067 59.9032 54.9203 54.1833C60.7339 48.4635 64 40.7057 64 32.6166C64 24.5275 60.7339 16.7697 54.9203 11.0498C49.1067 5.32996 41.2217 2.11658 33 2.11658C24.7783 2.11658 16.8933 5.32996 11.0797 11.0498C5.26606 16.7697 2 24.5275 2 32.6166C2 40.7057 5.26606 48.4635 11.0797 54.1833C16.8933 59.9032 24.7783 63.1166 33 63.1166Z" fill="black"/>
<path d="M22.3631 24.1757C22.3578 24.2988 22.3782 24.4217 22.4229 24.5368C22.4677 24.6519 22.5359 24.7568 22.6234 24.845C22.7108 24.9332 22.8157 25.0029 22.9316 25.0497C23.0474 25.0965 23.1718 25.1196 23.297 25.1174H26.4939C27.0286 25.1174 27.4549 24.6866 27.5246 24.1643C27.8734 21.6633 29.6171 19.8409 32.7249 19.8409C35.3831 19.8409 37.8166 21.1486 37.8166 24.2939C37.8166 26.7148 36.3674 27.8281 34.0773 29.5208C31.4694 31.3851 29.404 33.5621 29.5513 37.0963L29.5629 37.9236C29.5669 38.1737 29.6708 38.4122 29.852 38.5877C30.0333 38.7632 30.2774 38.8615 30.5316 38.8615H33.6743C33.9312 38.8615 34.1776 38.761 34.3593 38.5823C34.5409 38.4035 34.643 38.1611 34.643 37.9083V37.508C34.643 34.7706 35.7009 33.9738 38.5568 31.8426C40.9166 30.0775 43.3773 28.1178 43.3773 24.0041C43.3773 18.2435 38.4328 15.4603 33.0194 15.4603C28.1098 15.4603 22.7313 17.7097 22.3631 24.1757ZM28.3965 46.1471C28.3965 48.1792 30.0434 49.6813 32.3103 49.6813C34.6701 49.6813 36.2938 48.1792 36.2938 46.1471C36.2938 44.0426 34.6663 42.5634 32.3064 42.5634C30.0434 42.5634 28.3965 44.0426 28.3965 46.1471Z" fill="black"/>
</g>
<ellipse cx="57.0421" cy="61.1749" rx="9.04206" ry="9.05832" fill="black"/>
<path d="M58.3796 55.9348V66.1166H57.1467V57.2274H57.087L54.6012 58.8779V57.6251L57.1467 55.9348H58.3796Z" fill="white"/>
<defs>
<clipPath id="clip0_362_2134">
<rect width="62" height="61" fill="white" transform="translate(2 2.11658)"/>
</clipPath>
</defs>
</svg>
