<svg width="430" height="932" viewBox="0 0 430 932" fill="none" xmlns="http://www.w3.org/2000/svg">
<rect width="430" height="932" fill="#003441"/>
<path d="M203.655 113.932C205.741 113.857 207.765 113.908 209.727 114.086C211.624 114.074 213.554 114.158 215.516 114.336C219.628 114.628 223.457 115.016 227.002 115.501C230.547 115.986 233.775 116.472 236.687 116.961C238.903 117.264 240.865 117.442 242.572 117.495C244.47 117.484 246.271 117.189 247.975 116.609C249.679 116.03 251.476 115.102 253.366 113.826C255.381 112.296 257.518 110.196 259.779 107.526C260.605 108.091 261.431 108.655 262.256 109.219C263.017 109.594 263.905 110.032 264.92 110.532C261.091 115.424 257.832 120.44 255.143 125.579C252.39 130.529 250.015 135.35 248.019 140.042C246.027 145.367 244.287 150.5 242.798 155.442C241.499 160.32 240.264 165.387 239.094 170.643C237.799 176.153 236.568 181.853 235.401 187.742C234.359 193.377 233.536 198.41 232.929 202.841C232.831 207.522 233.012 211.474 233.474 214.696C233.936 217.919 234.429 220.92 234.951 223.7C235.345 226.101 236.149 228.468 237.365 230.801C238.516 232.945 241.249 235.079 245.562 237.203C246.304 234.416 247.655 232.795 249.612 232.341C251.695 231.633 253.498 231.654 255.02 232.404C256.922 233.025 258.289 234.25 259.122 236.079C260.08 237.655 260.343 239.361 259.911 241.197C259.479 243.034 258.604 244.81 257.286 246.526C255.969 248.241 254.3 249.548 252.282 250.445C248.245 252.24 243.844 251.413 239.08 247.962C237.046 246.33 235.041 244.16 233.064 241.452C231.277 238.68 229.802 235.273 228.64 231.233C227.731 227.317 227.01 223.02 226.476 218.343C226.131 213.602 226.073 209.08 226.3 204.778C226.289 202.88 226.149 200.604 225.88 197.95C225.801 195.23 225.882 192.985 226.124 191.212L137.221 221.436C138.52 227.12 140.423 233.339 142.93 240.091C145.437 246.844 148.286 252.74 151.479 257.781C155.629 264.397 160.533 270.124 166.191 274.96C171.849 279.796 177.787 283.904 184.005 287.282C189.969 290.535 196.025 293.124 202.171 295.048C208.507 296.908 214.934 298.103 221.451 298.633C234.297 299.758 247.378 297.846 260.693 292.897C267.003 290.33 273.308 287.13 279.61 283.297C285.912 279.465 291.894 275.002 297.556 269.909C307.054 261.187 316.505 249.842 325.909 235.871L332.76 239.246C327.499 248.005 322.485 255.625 317.717 262.104C312.884 268.394 308.205 273.893 303.679 278.6C299.343 283.243 295.035 287.348 290.755 290.915C286.411 294.293 282.098 297.45 277.814 300.385C259.545 312.51 241.122 320.146 222.547 323.293C213.007 325.057 203.587 325.619 194.285 324.979C185.174 324.274 176.562 322.555 168.45 319.82C151.78 313.658 138.563 303.364 128.8 288.939C123.446 281.887 119.004 274.102 115.474 265.585C111.945 257.068 109.395 248.323 107.824 239.352C106.192 230.823 105.51 222.605 105.779 214.698C106.173 206.536 107.264 198.561 109.052 190.771C111.158 183.295 113.898 176.132 117.273 169.281C120.837 162.366 125.132 156.048 130.157 150.325C133.801 146.129 137.637 142.502 141.667 139.442C145.442 136.257 149.442 133.419 153.664 130.927C157.823 128.246 161.983 125.881 166.145 123.832C178.949 118.001 191.453 114.701 203.655 113.932ZM229.909 157.606C229.368 151.664 227.027 146.333 222.888 141.615C220.468 138.846 217.48 136.271 213.924 133.889C210.493 131.253 206.498 129.442 201.939 128.458C197.315 127.283 192.316 126.87 186.942 127.219C181.757 127.502 176.987 128.385 172.632 129.865L171.78 130.155C167.3 131.889 163.297 134.095 159.771 136.772C156.434 139.385 153.228 142.693 150.153 146.696C147.267 150.635 144.48 155.173 141.791 160.312C139.291 165.387 137.363 170.901 136.007 176.854C133.606 187.81 133.615 199.954 136.034 213.284L228.346 181.902C228.217 181.523 228.278 181.08 228.528 180.573C229.009 176.395 229.46 172.44 229.88 168.706C230.236 164.782 230.246 161.082 229.909 157.606Z" fill="#BF8148" fill-opacity="0.2"/>
</svg>
