<svg width="33" height="42" viewBox="0 0 33 42" fill="none" xmlns="http://www.w3.org/2000/svg">
<path d="M14.5553 5.756C15.126 3.41467 18.4722 3.41467 19.0429 5.756C19.1285 6.10773 19.2964 6.43437 19.5328 6.70933C19.7692 6.98429 20.0675 7.19981 20.4034 7.33833C20.7393 7.47685 21.1034 7.53447 21.4659 7.50649C21.8284 7.47852 22.1791 7.36574 22.4896 7.17733C24.5565 5.924 26.9235 8.27867 25.6644 10.3373C25.4753 10.6462 25.3622 10.9951 25.3342 11.3557C25.3061 11.7163 25.364 12.0784 25.503 12.4125C25.642 12.7467 25.8582 13.0434 26.1342 13.2787C26.4101 13.514 26.7379 13.6812 27.091 13.7667C29.4433 14.3347 29.4433 17.6653 27.091 18.2333C26.7376 18.3186 26.4094 18.4856 26.1332 18.7209C25.857 18.9563 25.6404 19.2532 25.5013 19.5875C25.3621 19.9219 25.3042 20.2842 25.3323 20.645C25.3604 21.0059 25.4737 21.355 25.663 21.664C26.9222 23.7213 24.5565 26.0773 22.4882 24.824C22.1779 24.6359 21.8274 24.5233 21.4651 24.4954C21.1029 24.4674 20.7391 24.525 20.4034 24.6634C20.0677 24.8017 19.7695 25.017 19.5331 25.2916C19.2967 25.5663 19.1287 25.8926 19.0429 26.244C18.4722 28.5853 15.126 28.5853 14.5553 26.244C14.4697 25.8923 14.3019 25.5656 14.0655 25.2907C13.829 25.0157 13.5307 24.8002 13.1948 24.6617C12.8589 24.5232 12.4949 24.4655 12.1324 24.4935C11.7699 24.5215 11.4191 24.6343 11.1086 24.8227C9.0417 26.076 6.67469 23.7213 7.93388 21.6627C8.1229 21.3538 8.23602 21.0049 8.26406 20.6443C8.29211 20.2837 8.23427 19.9216 8.09526 19.5875C7.95625 19.2533 7.74 18.9566 7.46406 18.7213C7.18813 18.486 6.86031 18.3188 6.50725 18.2333C4.15497 17.6653 4.15497 14.3347 6.50725 13.7667C6.86062 13.6814 7.18879 13.5144 7.46504 13.2791C7.74128 13.0437 7.9578 12.7468 8.09697 12.4125C8.23614 12.0781 8.29403 11.7158 8.26592 11.355C8.23781 10.9941 8.12451 10.645 7.93522 10.336C6.67603 8.27867 9.0417 5.92267 11.11 7.176C12.4496 7.98667 14.1856 7.26933 14.5553 5.756Z" stroke="#003441" stroke-width="2.5" stroke-linecap="round" stroke-linejoin="round"/>
<path d="M12.7804 16C12.7804 17.0609 13.2038 18.0783 13.9574 18.8284C14.7111 19.5786 15.7333 20 16.7991 20C17.8649 20 18.8871 19.5786 19.6407 18.8284C20.3944 18.0783 20.8178 17.0609 20.8178 16C20.8178 14.9391 20.3944 13.9217 19.6407 13.1716C18.8871 12.4214 17.8649 12 16.7991 12C15.7333 12 14.7111 12.4214 13.9574 13.1716C13.2038 13.9217 12.7804 14.9391 12.7804 16Z" stroke="#003441" stroke-width="2.5" stroke-linecap="round" stroke-linejoin="round"/>
<line x1="10" y1="41" x2="24" y2="41" stroke="#003441" stroke-width="2" stroke-linecap="round"/>
</svg>
