<svg width="430" height="932" viewBox="0 0 430 932" fill="none" xmlns="http://www.w3.org/2000/svg">
<g clip-path="url(#clip0_5_2)">
<rect width="430" height="932" fill="#003441"/>
<path d="M391.752 416.395C393.143 416.345 394.493 416.379 395.8 416.498C397.065 416.49 398.352 416.546 399.659 416.665C402.401 416.859 404.954 417.118 407.317 417.441C409.68 417.764 411.832 418.089 413.774 418.415C415.251 418.617 416.559 418.735 417.697 418.771C418.962 418.763 420.163 418.566 421.299 418.18C422.435 417.794 423.633 417.175 424.893 416.325C426.236 415.305 427.661 413.905 429.169 412.125C429.719 412.501 430.269 412.877 430.82 413.253C431.327 413.503 431.919 413.795 432.596 414.128C430.043 417.39 427.871 420.734 426.078 424.16C424.242 427.46 422.659 430.674 421.329 433.802C420 437.352 418.84 440.774 417.848 444.069C416.982 447.32 416.159 450.698 415.378 454.203C414.515 457.876 413.694 461.676 412.916 465.602C412.222 469.359 411.673 472.714 411.269 475.668C411.203 478.788 411.324 481.423 411.632 483.571C411.94 485.72 412.268 487.721 412.616 489.574C412.879 491.175 413.415 492.753 414.226 494.308C414.993 495.737 416.815 497.16 419.69 498.576C420.185 496.718 421.085 495.637 422.391 495.335C423.779 494.862 424.981 494.876 425.996 495.376C427.263 495.79 428.175 496.607 428.73 497.827C429.369 498.877 429.544 500.014 429.256 501.239C428.968 502.463 428.385 503.647 427.507 504.791C426.628 505.935 425.516 506.806 424.17 507.404C421.479 508.601 418.545 508.049 415.369 505.749C414.013 504.661 412.676 503.214 411.359 501.409C410.167 499.561 409.184 497.289 408.409 494.596C407.803 491.985 407.322 489.121 406.966 486.003C406.736 482.842 406.697 479.827 406.849 476.959C406.841 475.694 406.748 474.177 406.569 472.407C406.516 470.594 406.57 469.097 406.732 467.915L347.463 488.065C348.329 491.854 349.598 496 351.269 500.501C352.94 505.003 354.84 508.934 356.968 512.295C359.735 516.705 363.004 520.523 366.776 523.747C370.548 526.971 374.507 529.71 378.652 531.962C382.629 534.131 386.666 535.856 390.763 537.139C394.987 538.379 399.271 539.176 403.616 539.529C412.18 540.279 420.901 539.005 429.778 535.705C433.984 533.994 438.188 531.86 442.389 529.305C446.59 526.751 450.578 523.775 454.353 520.38C460.685 514.565 466.986 507.002 473.255 497.688L477.822 499.938C474.315 505.777 470.972 510.857 467.793 515.177C464.572 519.37 461.452 523.036 458.435 526.174C455.544 529.269 452.672 532.006 449.819 534.384C446.923 536.636 444.047 538.74 441.192 540.697C429.012 548.781 416.731 553.871 404.347 555.969C397.987 557.145 391.707 557.52 385.506 557.093C379.431 556.623 373.69 555.477 368.282 553.654C357.169 549.546 348.358 542.683 341.849 533.066C338.279 528.365 335.318 523.175 332.965 517.497C330.612 511.819 328.912 505.989 327.865 500.008C326.777 494.323 326.322 488.844 326.502 483.572C326.765 478.131 327.492 472.814 328.684 467.621C330.088 462.637 331.914 457.862 334.164 453.295C336.54 448.685 339.403 444.472 342.754 440.658C345.183 437.86 347.74 435.442 350.427 433.402C352.944 431.279 355.61 429.386 358.425 427.725C361.197 425.938 363.971 424.361 366.746 422.995C375.282 419.108 383.617 416.908 391.752 416.395ZM409.255 445.511C408.894 441.55 407.334 437.996 404.574 434.85C402.961 433.005 400.969 431.288 398.599 429.7C396.311 427.942 393.648 426.735 390.608 426.079C387.525 425.296 384.193 425.021 380.61 425.253C377.154 425.442 373.974 426.03 371.07 427.017L370.502 427.211C367.515 428.367 364.847 429.837 362.496 431.622C360.272 433.364 358.135 435.569 356.084 438.238C354.16 440.864 352.302 443.89 350.509 447.316C348.843 450.699 347.558 454.375 346.654 458.343C345.053 465.647 345.059 473.743 346.672 482.63L408.213 461.708C408.127 461.456 408.167 461.161 408.334 460.822C408.655 458.038 408.955 455.4 409.236 452.911C409.473 450.295 409.48 447.829 409.255 445.511Z" fill="#BF8148" fill-opacity="0.5"/>
</g>
<defs>
<clipPath id="clip0_5_2">
<rect width="430" height="932" fill="white"/>
</clipPath>
</defs>
</svg>
