<svg width="323" height="281" viewBox="0 0 323 281" fill="none" xmlns="http://www.w3.org/2000/svg">
<g clip-path="url(#clip0_1200_1118)">
<rect width="323" height="281" rx="30" fill="#412300"/>
<path d="M117.373 104.4H123.981V124H117.373V104.4ZM111.269 124H104.661V104.4H111.269V124ZM117.821 116.776H110.821V111.344H117.821V116.776ZM146.79 108.404C147.948 108.404 148.984 108.647 149.898 109.132C150.832 109.599 151.56 110.336 152.082 111.344C152.624 112.352 152.894 113.659 152.894 115.264V124H146.566V116.356C146.566 115.404 146.408 114.732 146.09 114.34C145.773 113.929 145.362 113.724 144.858 113.724C144.485 113.724 144.149 113.817 143.85 114.004C143.552 114.191 143.309 114.489 143.122 114.9C142.954 115.292 142.87 115.833 142.87 116.524V124H136.542V116.356C136.542 115.404 136.393 114.732 136.094 114.34C135.796 113.929 135.376 113.724 134.834 113.724C134.461 113.724 134.125 113.817 133.826 114.004C133.528 114.191 133.285 114.489 133.098 114.9C132.93 115.292 132.846 115.833 132.846 116.524V124H126.518V108.684H132.538V113.08L131.306 111.848C131.885 110.691 132.66 109.832 133.63 109.272C134.601 108.693 135.684 108.404 136.878 108.404C138.222 108.404 139.408 108.759 140.434 109.468C141.48 110.159 142.18 111.26 142.534 112.772L140.602 112.464C141.162 111.195 141.974 110.205 143.038 109.496C144.121 108.768 145.372 108.404 146.79 108.404ZM175.461 108.404C176.618 108.404 177.654 108.647 178.569 109.132C179.502 109.599 180.23 110.336 180.753 111.344C181.294 112.352 181.565 113.659 181.565 115.264V124H175.237V116.356C175.237 115.404 175.078 114.732 174.761 114.34C174.444 113.929 174.033 113.724 173.529 113.724C173.156 113.724 172.82 113.817 172.521 114.004C172.222 114.191 171.98 114.489 171.793 114.9C171.625 115.292 171.541 115.833 171.541 116.524V124H165.213V116.356C165.213 115.404 165.064 114.732 164.765 114.34C164.466 113.929 164.046 113.724 163.505 113.724C163.132 113.724 162.796 113.817 162.497 114.004C162.198 114.191 161.956 114.489 161.769 114.9C161.601 115.292 161.517 115.833 161.517 116.524V124H155.189V108.684H161.209V113.08L159.977 111.848C160.556 110.691 161.33 109.832 162.301 109.272C163.272 108.693 164.354 108.404 165.549 108.404C166.893 108.404 168.078 108.759 169.105 109.468C170.15 110.159 170.85 111.26 171.205 112.772L169.273 112.464C169.833 111.195 170.645 110.205 171.709 109.496C172.792 108.768 174.042 108.404 175.461 108.404ZM204.132 108.404C205.289 108.404 206.325 108.647 207.24 109.132C208.173 109.599 208.901 110.336 209.424 111.344C209.965 112.352 210.236 113.659 210.236 115.264V124H203.908V116.356C203.908 115.404 203.749 114.732 203.432 114.34C203.114 113.929 202.704 113.724 202.2 113.724C201.826 113.724 201.49 113.817 201.192 114.004C200.893 114.191 200.65 114.489 200.464 114.9C200.296 115.292 200.212 115.833 200.212 116.524V124H193.884V116.356C193.884 115.404 193.734 114.732 193.436 114.34C193.137 113.929 192.717 113.724 192.176 113.724C191.802 113.724 191.466 113.817 191.168 114.004C190.869 114.191 190.626 114.489 190.44 114.9C190.272 115.292 190.188 115.833 190.188 116.524V124H183.86V108.684H189.88V113.08L188.648 111.848C189.226 110.691 190.001 109.832 190.972 109.272C191.942 108.693 193.025 108.404 194.22 108.404C195.564 108.404 196.749 108.759 197.776 109.468C198.821 110.159 199.521 111.26 199.876 112.772L197.944 112.464C198.504 111.195 199.316 110.205 200.38 109.496C201.462 108.768 202.713 108.404 204.132 108.404ZM213.006 116.496L211.746 104.4H219.306L218.046 116.496H213.006ZM215.526 124.28C214.444 124.28 213.557 123.953 212.866 123.3C212.176 122.628 211.83 121.835 211.83 120.92C211.83 119.987 212.176 119.203 212.866 118.568C213.557 117.933 214.444 117.616 215.526 117.616C216.628 117.616 217.514 117.933 218.186 118.568C218.877 119.203 219.222 119.987 219.222 120.92C219.222 121.835 218.877 122.628 218.186 123.3C217.514 123.953 216.628 124.28 215.526 124.28Z" fill="white"/>
<path d="M311.667 136.833H220.333C182.556 136.833 151.833 167.556 151.833 205.333V353.75C151.833 356.778 153.036 359.682 155.177 361.823C157.318 363.964 160.222 365.167 163.25 365.167H311.667C349.445 365.167 380.167 334.444 380.167 296.667V205.333C380.167 167.556 349.445 136.833 311.667 136.833ZM357.333 296.667C357.333 321.852 336.852 342.333 311.667 342.333H174.667V205.333C174.667 180.148 195.148 159.667 220.333 159.667H311.667C336.852 159.667 357.333 180.148 357.333 205.333V296.667Z" fill="white" fill-opacity="0.1"/>
<path d="M254.583 182.5H277.417V273.833H254.583V182.5ZM254.583 296.667H277.417V319.5H254.583V296.667Z" fill="white" fill-opacity="0.1"/>
</g>
<rect x="1" y="1" width="321" height="279" rx="29" stroke="white" stroke-width="2"/>
<defs>
<clipPath id="clip0_1200_1118">
<rect width="323" height="281" rx="30" fill="white"/>
</clipPath>
</defs>
</svg>
