<svg width="35" height="41" viewBox="0 0 35 41" fill="none" xmlns="http://www.w3.org/2000/svg">
<path d="M1.52808 21.2V11.6C1.52808 9.05392 2.54423 6.61212 4.35299 4.81178C6.16175 3.01143 8.61496 2 11.1729 2H24.0327C26.5907 2 29.0439 3.01143 30.8527 4.81178C32.6615 6.61212 33.6776 9.05392 33.6776 11.6V21.2C33.6776 23.7461 32.6615 26.1879 30.8527 27.9882C29.0439 29.7886 26.5907 30.8 24.0327 30.8H11.1729C8.61496 30.8 6.16175 29.7886 4.35299 27.9882C2.54423 26.1879 1.52808 23.7461 1.52808 21.2Z" stroke="#003441" stroke-width="2.5"/>
<path d="M19.2104 22V17.52M19.2104 17.52V10.8H23.803C24.9507 10.8 27.2478 10.8 27.2478 14.16C27.2478 17.52 24.9507 17.52 23.803 17.52M19.2104 17.52H23.803M23.803 17.52L27.2478 22M15.9954 22L14.2738 18L11.173 10.8L8.07219 18M6.35059 22L8.07219 18M8.07219 18H14.2754" stroke="#003441" stroke-width="2.5" stroke-linecap="round" stroke-linejoin="round"/>
<line x1="11" y1="40" x2="25" y2="40" stroke="#003441" stroke-width="2" stroke-linecap="round"/>
</svg>
