<svg width="430" height="932" viewBox="0 0 430 932" fill="none" xmlns="http://www.w3.org/2000/svg">
<g clip-path="url(#clip0_6_2)">
<rect width="430" height="932" fill="#003441"/>
<path fill-rule="evenodd" clip-rule="evenodd" d="M455.611 0.627765C505.307 -2.12703 558 3.18013 594.582 36.9094C632.285 71.6725 642.063 124.65 645.593 175.795C649.467 231.915 653.624 294.176 615.176 335.262C576.025 377.099 511.071 393.276 455.611 378.811C407.297 366.21 398.62 303.277 362.094 269.254C322.636 232.5 245.22 229.168 237.659 175.795C230.099 122.426 289.217 85.2856 331.246 51.5068C367.534 22.3424 409.116 3.20509 455.611 0.627765Z" fill="white"/>
<path fill-rule="evenodd" clip-rule="evenodd" d="M-12.0908 684.044C21.8012 682.461 42.2023 724.019 73.95 735.984C109.486 749.378 168.221 723.641 184.269 758.051C202.69 797.548 137.019 836.273 140.964 879.673C144.153 914.764 201.377 928.465 202.956 963.664C204.406 996 169.764 1018.23 148.263 1042.44C127.555 1065.74 106.495 1088.95 78.8424 1103.36C50.7917 1117.98 19.5418 1126.16 -12.0908 1126C-43.6532 1125.83 -76.8564 1120.72 -102.569 1102.42C-127.564 1084.63 -130.748 1048.23 -152.188 1026.29C-176.609 1001.29 -222.538 997.902 -236.141 965.719C-249.263 934.675 -225.181 900.496 -219.389 867.296C-213.304 832.412 -226.159 788.909 -200.956 764.026C-174.895 738.297 -128.072 758.126 -94.3459 743.843C-62.7333 730.455 -46.3855 685.645 -12.0908 684.044Z" fill="white"/>
</g>
<defs>
<clipPath id="clip0_6_2">
<rect width="430" height="932" fill="white"/>
</clipPath>
</defs>
</svg>
