<svg width="430" height="932" viewBox="0 0 430 932" fill="none" xmlns="http://www.w3.org/2000/svg">
<g clip-path="url(#clip0_12_509)">
<rect width="430" height="932" fill="#003441"/>
<rect x="-204" y="282" width="288" height="288" rx="20" transform="rotate(-45 -204 282)" fill="#BF8148"/>
<rect x="374.414" y="675.912" width="78.4853" height="78.4853" rx="9" transform="rotate(-45 374.414 675.912)" stroke="#BF8148" stroke-width="2"/>
<path d="M26.904 244.767L27.192 244.607L27.256 244.287L27.128 244.063C26.424 243.871 25.88 243.476 25.496 242.879C25.1333 242.26 24.9627 241.62 24.984 240.959C25.0267 239.551 25.048 238.154 25.048 236.767C25.0693 235.38 25.0587 233.983 25.016 232.575C26.7227 232.596 28.4187 232.618 30.104 232.639C31.7893 232.66 33.4853 232.671 35.192 232.671V237.119C35.192 237.61 35.032 238.026 34.712 238.367C34.4133 238.708 34.04 238.932 33.592 239.039C33.5067 239.124 33.4427 239.263 33.4 239.455C33.3787 239.668 33.464 239.775 33.656 239.775H38.488L38.744 239.551L38.712 239.231L38.552 239.039C38.1253 238.911 37.752 238.666 37.432 238.303C37.1333 237.962 36.984 237.567 36.984 237.119V232.671C38.584 232.671 40.1733 232.66 41.752 232.639C43.352 232.618 44.952 232.596 46.552 232.575C46.5307 233.258 46.52 233.93 46.52 234.591C46.52 235.274 46.52 235.956 46.52 236.639C46.5413 237.322 46.5627 237.994 46.584 238.655C46.6267 239.338 46.6373 240.02 46.616 240.703C46.616 240.874 46.5307 241.002 46.36 241.087C46.2107 241.172 46.0293 241.236 45.816 241.279C45.624 241.322 45.4213 241.354 45.208 241.375C45.016 241.418 44.8667 241.471 44.76 241.535C44.5893 241.62 44.504 241.748 44.504 241.919C44.5253 242.09 44.6213 242.207 44.792 242.271C44.984 242.271 45.2293 242.271 45.528 242.271C45.848 242.292 46.168 242.303 46.488 242.303C46.808 242.303 47.1173 242.303 47.416 242.303C47.736 242.324 47.992 242.335 48.184 242.335C48.2267 242.292 48.28 242.239 48.344 242.175C48.408 242.132 48.44 242.068 48.44 241.983C48.44 240.746 48.408 239.519 48.344 238.303C48.3013 237.087 48.28 235.86 48.28 234.623C48.28 233.386 48.3013 232.159 48.344 230.943C48.408 229.727 48.4827 228.5 48.568 227.263C48.568 227.263 48.5467 227.199 48.504 227.071C48.4827 226.964 48.4293 226.911 48.344 226.911C48.2373 226.868 48.1627 226.9 48.12 227.007C48.0987 227.114 48.056 227.21 47.992 227.295C47.9493 227.892 47.704 228.394 47.256 228.799C46.808 229.204 46.2853 229.418 45.688 229.439C42.3813 229.546 39.0747 229.599 35.768 229.599C32.4827 229.62 29.1867 229.567 25.88 229.439C25.304 229.418 24.792 229.194 24.344 228.767C23.896 228.362 23.6507 227.871 23.608 227.295L23.416 227.007L23.096 227.135L23.032 227.263C23.1813 229.994 23.256 232.703 23.256 235.391C23.256 238.079 23.2027 240.788 23.096 243.519C23.1387 243.562 23.16 243.626 23.16 243.711C23.16 243.796 23.192 243.86 23.256 243.903C23.3413 243.924 23.5547 243.978 23.896 244.063C24.2373 244.148 24.6 244.234 24.984 244.319C25.3893 244.426 25.7733 244.522 26.136 244.607C26.52 244.692 26.776 244.746 26.904 244.767ZM48.024 269.978C48.088 269.935 48.1413 269.892 48.184 269.85C48.248 269.828 48.28 269.764 48.28 269.658C48.2587 268.591 48.216 267.535 48.152 266.49C48.1093 265.444 48.0773 264.378 48.056 263.29C47.9493 258.831 47.9813 254.383 48.152 249.946L48.088 249.69C47.6613 249.284 47.2347 248.879 46.808 248.474C46.4027 248.068 45.9867 247.652 45.56 247.226L45.24 247.194L45.048 247.514L45.112 247.77C45.5813 248.26 45.9013 248.826 46.072 249.466C46.2427 250.106 46.328 250.746 46.328 251.386C46.264 253.626 46.232 255.876 46.232 258.138C42.7973 258.159 39.3733 258.17 35.96 258.17C32.5467 258.17 29.1227 258.17 25.688 258.17C25.112 258.17 24.6107 257.956 24.184 257.53C23.7573 257.124 23.544 256.634 23.544 256.058L23.384 255.77C23.3413 255.791 23.256 255.823 23.128 255.866C23.0213 255.908 22.968 255.972 22.968 256.058C22.9253 256.463 22.9147 256.868 22.936 257.274C22.9573 257.7 22.9573 258.116 22.936 258.522V263.482L23.096 263.77L23.416 263.738L23.512 263.482C23.4907 262.863 23.6933 262.351 24.12 261.946C24.568 261.562 25.0907 261.348 25.688 261.306C26.776 261.263 27.8747 261.242 28.984 261.242C30.0933 261.242 31.2027 261.242 32.312 261.242C34.6373 261.22 36.952 261.21 39.256 261.21C41.5813 261.231 43.9173 261.263 46.264 261.306C46.264 262.415 46.2853 263.524 46.328 264.634C46.392 265.764 46.4133 266.884 46.392 267.994C46.3707 268.207 46.328 268.378 46.264 268.506C46.2 268.634 46.0507 268.719 45.816 268.762H45.848C45.6347 268.847 45.4 268.9 45.144 268.922C44.9093 268.964 44.6853 269.007 44.472 269.05L44.28 269.338C44.3013 269.402 44.3333 269.476 44.376 269.562C44.4187 269.668 44.4827 269.743 44.568 269.786C45.144 269.807 45.72 269.828 46.296 269.85C46.872 269.892 47.448 269.935 48.024 269.978ZM26.904 292.673L27.192 292.513L27.256 292.193L27.128 291.969C26.4453 291.777 25.912 291.383 25.528 290.785C25.1653 290.188 24.984 289.548 24.984 288.865C24.984 287.457 24.9947 286.06 25.016 284.673C25.0587 283.287 25.0587 281.889 25.016 280.481C27.3413 280.524 29.6667 280.556 31.992 280.577C34.3173 280.599 36.6427 280.599 38.968 280.577C40.0773 280.577 41.1867 280.556 42.296 280.513C43.4053 280.492 44.5147 280.492 45.624 280.513C46.2 280.513 46.6907 280.695 47.096 281.057C47.5227 281.441 47.736 281.932 47.736 282.529L47.896 282.817C47.9387 282.796 48.0133 282.764 48.12 282.721C48.2267 282.679 48.2907 282.615 48.312 282.529C48.3547 282.103 48.3653 281.665 48.344 281.217C48.344 280.791 48.3547 280.364 48.376 279.937C48.4187 278.359 48.4827 276.769 48.568 275.169L48.44 274.881C48.3973 274.903 48.312 274.935 48.184 274.977C48.0773 275.041 48.0133 275.116 47.992 275.201C47.8213 275.82 47.5653 276.321 47.224 276.705C46.8827 277.089 46.3707 277.303 45.688 277.345C44.088 277.452 42.488 277.495 40.888 277.473C39.288 277.473 37.688 277.473 36.088 277.473C34.4027 277.473 32.7067 277.473 31 277.473C29.2933 277.495 27.5867 277.452 25.88 277.345C25.304 277.303 24.792 277.079 24.344 276.673C23.896 276.289 23.6507 275.799 23.608 275.201L23.416 274.913C23.352 274.935 23.2667 274.956 23.16 274.977C23.0747 275.02 23.032 275.084 23.032 275.169C23.1813 277.9 23.256 280.609 23.256 283.297C23.256 285.985 23.2027 288.695 23.096 291.425C23.1173 291.489 23.128 291.564 23.128 291.649C23.1493 291.735 23.192 291.788 23.256 291.809C23.4053 291.873 23.64 291.937 23.96 292.001C24.3013 292.087 24.6533 292.172 25.016 292.257C25.4 292.343 25.7627 292.417 26.104 292.481C26.4453 292.567 26.712 292.631 26.904 292.673ZM23.16 320.413L23.576 320.061C23.6187 319.335 23.864 318.685 24.312 318.109C24.7813 317.554 25.3467 317.127 26.008 316.829C28.632 315.677 31.2667 314.599 33.912 313.597C36.5787 312.594 39.2453 311.581 41.912 310.557L47 308.637L48.44 308.061C48.5467 307.997 48.6 307.879 48.6 307.709C48.6 307.559 48.5467 307.453 48.44 307.389C48.12 307.218 47.7573 307.069 47.352 306.941C46.968 306.813 46.6053 306.674 46.264 306.525L41.144 304.573C38.584 303.57 36.0347 302.578 33.496 301.597C30.9787 300.615 28.4507 299.591 25.912 298.525H25.944C25.3253 298.226 24.7813 297.799 24.312 297.245C23.864 296.69 23.6187 296.061 23.576 295.357L23.384 295.069C23.384 295.069 23.32 295.101 23.192 295.165C23.064 295.229 23 295.282 23 295.325C23 296.263 23.0213 297.191 23.064 298.109C23.128 299.047 23.1707 299.997 23.192 300.957L23.352 301.245H23.672C23.7787 300.946 23.864 300.701 23.928 300.509C23.992 300.338 24.2267 300.231 24.632 300.189C24.7387 300.167 25.0053 300.231 25.432 300.381C25.88 300.53 26.4027 300.722 27 300.957C27.6187 301.191 28.2693 301.447 28.952 301.725C29.656 302.023 30.3173 302.301 30.936 302.557C31.576 302.834 32.1413 303.069 32.632 303.261C33.1227 303.474 33.4747 303.623 33.688 303.709V310.461C33.5173 310.525 33.1867 310.653 32.696 310.845C32.2053 311.058 31.6293 311.293 30.968 311.549C30.328 311.805 29.6453 312.071 28.92 312.349C28.1947 312.647 27.5227 312.914 26.904 313.149C26.3067 313.383 25.7947 313.575 25.368 313.725C24.9627 313.874 24.7387 313.949 24.696 313.949C24.4613 313.906 24.2587 313.831 24.088 313.725C23.9173 313.639 23.8213 313.447 23.8 313.149L23.64 312.893C23.5973 312.914 23.5227 312.946 23.416 312.989C23.3093 313.031 23.2453 313.095 23.224 313.181C23.1813 313.522 23.16 313.863 23.16 314.205C23.1813 314.546 23.1813 314.887 23.16 315.229C23.1387 316.039 23.1173 316.85 23.096 317.661C23.0747 318.493 23.0427 319.314 23 320.125L23.16 320.413ZM35.448 309.789C35.448 308.893 35.4373 307.986 35.416 307.069C35.416 306.173 35.4267 305.277 35.448 304.381C36.6 304.871 37.7627 305.33 38.936 305.757C40.1093 306.183 41.2827 306.631 42.456 307.101L35.448 309.789ZM47.416 338.032L47.672 337.808C47.9067 336.805 48.0773 335.792 48.184 334.768C48.2907 333.744 48.3333 332.72 48.312 331.696C48.2907 330.843 48.1307 330.021 47.832 329.232C47.5547 328.443 47.1067 327.739 46.488 327.12C45.8907 326.544 45.1973 326.096 44.408 325.776C43.64 325.477 42.8507 325.339 42.04 325.36C41.4853 325.381 40.9307 325.445 40.376 325.552C39.8213 325.659 39.2987 325.861 38.808 326.16C38.2747 326.501 37.7413 326.96 37.208 327.536C36.696 328.133 36.1627 328.773 35.608 329.456C35.0747 330.139 34.5307 330.832 33.976 331.536C33.4213 332.261 32.856 332.912 32.28 333.488C31.7253 334.064 31.1387 334.533 30.52 334.896C29.9227 335.28 29.3147 335.472 28.696 335.472C28.2907 335.472 27.8747 335.376 27.448 335.184C27.0427 334.992 26.6907 334.768 26.392 334.512C25.688 333.872 25.2507 333.093 25.08 332.176C24.9307 331.28 24.952 330.341 25.144 329.36C25.336 328.4 25.6347 327.461 26.04 326.544C26.4453 325.627 26.8613 324.837 27.288 324.176L27.32 323.856L26.936 323.6C26.5093 323.707 26.072 323.781 25.624 323.824C25.176 323.888 24.7387 323.973 24.312 324.08L24.12 324.304C23.8213 325.52 23.608 326.736 23.48 327.952C23.352 329.189 23.2773 330.427 23.256 331.664C23.256 332.475 23.3947 333.264 23.672 334.032C23.9493 334.821 24.3867 335.515 24.984 336.112C25.56 336.688 26.2427 337.125 27.032 337.424C27.8427 337.744 28.6533 337.893 29.464 337.872C30.552 337.851 31.5227 337.595 32.376 337.104C33.2293 336.635 34.008 336.037 34.712 335.312C35.416 334.608 36.0773 333.84 36.696 333.008C37.3147 332.176 37.9333 331.397 38.552 330.672C39.1707 329.947 39.8107 329.339 40.472 328.848C41.1333 328.357 41.8693 328.101 42.68 328.08C43.1707 328.059 43.6293 328.155 44.056 328.368C44.4827 328.603 44.8773 328.88 45.24 329.2C45.752 329.669 46.1253 330.267 46.36 330.992C46.616 331.739 46.7333 332.496 46.712 333.264C46.712 334.053 46.5733 334.811 46.296 335.536C46.04 336.261 45.656 336.859 45.144 337.328L45.048 337.648C45.0907 337.712 45.1333 337.776 45.176 337.84C45.2187 337.925 45.2827 337.968 45.368 337.968C45.7093 338.011 46.0507 338.032 46.392 338.032C46.7333 338.032 47.0747 338.032 47.416 338.032Z" fill="#003441"/>
</g>
<defs>
<clipPath id="clip0_12_509">
<rect width="430" height="932" fill="white"/>
</clipPath>
</defs>
</svg>
