<svg width="358" height="506" viewBox="0 0 358 506" fill="none" xmlns="http://www.w3.org/2000/svg">
<g clip-path="url(#clip0_28_226)">
<rect width="358" height="506" rx="30" fill="white"/>
<circle cx="375" cy="176" r="46" fill="#BF8148" fill-opacity="0.58"/>
<circle cx="20.5" cy="522.5" r="71.5" fill="#BF8148" fill-opacity="0.58"/>
<path d="M75.2764 472.416C75.2764 471.317 75.0418 470.341 74.5724 469.488C74.1138 468.624 73.4631 467.952 72.6204 467.472C71.7778 466.981 70.8178 466.736 69.7404 466.736C68.6524 466.736 67.6871 466.981 66.8444 467.472C66.0018 467.952 65.3458 468.624 64.8764 469.488C64.4071 470.341 64.1724 471.317 64.1724 472.416C64.1724 473.515 64.4071 474.496 64.8764 475.36C65.3458 476.213 66.0018 476.885 66.8444 477.376C67.6871 477.856 68.6524 478.096 69.7404 478.096C70.8178 478.096 71.7778 477.856 72.6204 477.376C73.4631 476.885 74.1138 476.213 74.5724 475.36C75.0418 474.496 75.2764 473.515 75.2764 472.416ZM64.8604 472.416C64.8604 471.413 65.0578 470.533 65.4524 469.776C65.8471 469.008 66.4124 468.416 67.1484 468C67.8844 467.573 68.7484 467.36 69.7404 467.36C70.7218 467.36 71.5751 467.573 72.3004 468C73.0364 468.416 73.6018 469.008 73.9964 469.776C74.3911 470.533 74.5884 471.413 74.5884 472.416C74.5884 473.419 74.3911 474.304 73.9964 475.072C73.6018 475.829 73.0364 476.421 72.3004 476.848C71.5751 477.275 70.7218 477.488 69.7404 477.488C68.7484 477.488 67.8844 477.275 67.1484 476.848C66.4124 476.421 65.8471 475.829 65.4524 475.072C65.0578 474.304 64.8604 473.419 64.8604 472.416ZM66.2364 472.4C66.2364 471.653 66.3911 471.003 66.7004 470.448C67.0098 469.883 67.4258 469.451 67.9484 469.152C68.4818 468.853 69.0684 468.704 69.7084 468.704C70.5191 468.704 71.2178 468.912 71.8044 469.328C72.3911 469.744 72.7858 470.331 72.9884 471.088H71.6444C71.5058 470.661 71.2658 470.336 70.9244 470.112C70.5831 469.877 70.1778 469.76 69.7084 469.76C69.0684 469.76 68.5458 469.989 68.1404 470.448C67.7351 470.907 67.5324 471.563 67.5324 472.416C67.5324 473.259 67.7351 473.909 68.1404 474.368C68.5458 474.827 69.0684 475.056 69.7084 475.056C70.6791 475.056 71.3244 474.613 71.6444 473.728H72.9884C72.7751 474.453 72.3751 475.035 71.7884 475.472C71.2018 475.899 70.5084 476.112 69.7084 476.112C69.0684 476.112 68.4818 475.963 67.9484 475.664C67.4258 475.355 67.0098 474.923 66.7004 474.368C66.3911 473.803 66.2364 473.147 66.2364 472.4ZM82.613 467.984V471.808H86.677V472.928H82.613V476.848H87.157V478H81.157V466.832H87.157V467.984H82.613ZM90.6857 470.432V475.6C90.6857 476.027 90.7763 476.331 90.9577 476.512C91.139 476.683 91.4537 476.768 91.9017 476.768H92.9737V478H91.6617C90.851 478 90.243 477.813 89.8377 477.44C89.4323 477.067 89.2297 476.453 89.2297 475.6V470.432H88.0937V469.232H89.2297V467.024H90.6857V469.232H92.9737V470.432H90.6857ZM95.7433 466.16V478H94.2873V466.16H95.7433ZM97.2304 473.584C97.2304 472.688 97.4117 471.904 97.7744 471.232C98.137 470.549 98.633 470.021 99.2624 469.648C99.9024 469.275 100.612 469.088 101.39 469.088C102.158 469.088 102.825 469.253 103.39 469.584C103.956 469.915 104.377 470.331 104.654 470.832V469.232H106.126V478H104.654V476.368C104.366 476.88 103.934 477.307 103.358 477.648C102.793 477.979 102.132 478.144 101.374 478.144C100.596 478.144 99.8917 477.952 99.2624 477.568C98.633 477.184 98.137 476.645 97.7744 475.952C97.4117 475.259 97.2304 474.469 97.2304 473.584ZM104.654 473.6C104.654 472.939 104.521 472.363 104.254 471.872C103.988 471.381 103.625 471.008 103.166 470.752C102.718 470.485 102.222 470.352 101.678 470.352C101.134 470.352 100.638 470.48 100.19 470.736C99.7424 470.992 99.385 471.365 99.1184 471.856C98.8517 472.347 98.7184 472.923 98.7184 473.584C98.7184 474.256 98.8517 474.843 99.1184 475.344C99.385 475.835 99.7424 476.213 100.19 476.48C100.638 476.736 101.134 476.864 101.678 476.864C102.222 476.864 102.718 476.736 103.166 476.48C103.625 476.213 103.988 475.835 104.254 475.344C104.521 474.843 104.654 474.261 104.654 473.6ZM111.224 478.144C110.552 478.144 109.95 478.032 109.416 477.808C108.894 477.573 108.478 477.253 108.168 476.848C107.859 476.432 107.688 475.957 107.656 475.424H109.16C109.203 475.883 109.406 476.256 109.768 476.544C110.142 476.832 110.627 476.976 111.224 476.976C111.79 476.976 112.227 476.853 112.536 476.608C112.856 476.352 113.016 476.021 113.016 475.616C113.016 475.232 112.846 474.949 112.504 474.768C112.163 474.576 111.635 474.389 110.92 474.208C110.27 474.037 109.742 473.867 109.336 473.696C108.931 473.525 108.584 473.275 108.296 472.944C108.008 472.603 107.864 472.155 107.864 471.6C107.864 471.141 107.992 470.72 108.248 470.336C108.504 469.952 108.872 469.648 109.352 469.424C109.843 469.2 110.408 469.088 111.048 469.088C112.019 469.088 112.803 469.333 113.4 469.824C113.998 470.315 114.318 470.987 114.36 471.84H112.904C112.872 471.36 112.686 470.976 112.344 470.688C112.014 470.4 111.566 470.256 111 470.256C110.467 470.256 110.046 470.373 109.736 470.608C109.438 470.843 109.288 471.152 109.288 471.536C109.288 471.835 109.384 472.08 109.576 472.272C109.768 472.453 110.003 472.597 110.28 472.704C110.558 472.8 110.952 472.923 111.464 473.072C112.104 473.243 112.616 473.413 113 473.584C113.384 473.744 113.715 473.984 113.992 474.304C114.27 474.624 114.408 475.051 114.408 475.584C114.408 476.075 114.275 476.512 114.008 476.896C113.752 477.28 113.384 477.584 112.904 477.808C112.424 478.032 111.864 478.144 111.224 478.144ZM119.816 473.584C119.816 472.688 119.998 471.904 120.36 471.232C120.723 470.549 121.219 470.021 121.848 469.648C122.488 469.275 123.198 469.088 123.976 469.088C124.744 469.088 125.411 469.253 125.976 469.584C126.542 469.915 126.963 470.331 127.24 470.832V469.232H128.712V478H127.24V476.368C126.952 476.88 126.52 477.307 125.944 477.648C125.379 477.979 124.718 478.144 123.96 478.144C123.182 478.144 122.478 477.952 121.848 477.568C121.219 477.184 120.723 476.645 120.36 475.952C119.998 475.259 119.816 474.469 119.816 473.584ZM127.24 473.6C127.24 472.939 127.107 472.363 126.84 471.872C126.574 471.381 126.211 471.008 125.752 470.752C125.304 470.485 124.808 470.352 124.264 470.352C123.72 470.352 123.224 470.48 122.776 470.736C122.328 470.992 121.971 471.365 121.704 471.856C121.438 472.347 121.304 472.923 121.304 473.584C121.304 474.256 121.438 474.843 121.704 475.344C121.971 475.835 122.328 476.213 122.776 476.48C123.224 476.736 123.72 476.864 124.264 476.864C124.808 476.864 125.304 476.736 125.752 476.48C126.211 476.213 126.574 475.835 126.84 475.344C127.107 474.843 127.24 474.261 127.24 473.6ZM132.179 466.16V478H130.723V466.16H132.179ZM135.666 466.16V478H134.21V466.16H135.666ZM143.468 470.896C143.724 470.32 144.086 469.872 144.556 469.552C145.036 469.232 145.617 469.072 146.3 469.072V470.576H145.916C144.284 470.576 143.468 471.461 143.468 473.232V478H142.012V469.232H143.468V470.896ZM148.282 467.808C148.005 467.808 147.77 467.712 147.578 467.52C147.386 467.328 147.29 467.093 147.29 466.816C147.29 466.539 147.386 466.304 147.578 466.112C147.77 465.92 148.005 465.824 148.282 465.824C148.549 465.824 148.773 465.92 148.954 466.112C149.146 466.304 149.242 466.539 149.242 466.816C149.242 467.093 149.146 467.328 148.954 467.52C148.773 467.712 148.549 467.808 148.282 467.808ZM148.986 469.232V478H147.53V469.232H148.986ZM154.633 469.088C155.39 469.088 156.052 469.253 156.617 469.584C157.193 469.915 157.62 470.331 157.897 470.832V469.232H159.369V478.192C159.369 478.992 159.198 479.701 158.857 480.32C158.516 480.949 158.025 481.44 157.385 481.792C156.756 482.144 156.02 482.32 155.177 482.32C154.025 482.32 153.065 482.048 152.297 481.504C151.529 480.96 151.076 480.219 150.937 479.28H152.377C152.537 479.813 152.868 480.24 153.369 480.56C153.87 480.891 154.473 481.056 155.177 481.056C155.977 481.056 156.628 480.805 157.129 480.304C157.641 479.803 157.897 479.099 157.897 478.192V476.352C157.609 476.864 157.182 477.291 156.617 477.632C156.052 477.973 155.39 478.144 154.633 478.144C153.854 478.144 153.145 477.952 152.505 477.568C151.876 477.184 151.38 476.645 151.017 475.952C150.654 475.259 150.473 474.469 150.473 473.584C150.473 472.688 150.654 471.904 151.017 471.232C151.38 470.549 151.876 470.021 152.505 469.648C153.145 469.275 153.854 469.088 154.633 469.088ZM157.897 473.6C157.897 472.939 157.764 472.363 157.497 471.872C157.23 471.381 156.868 471.008 156.409 470.752C155.961 470.485 155.465 470.352 154.921 470.352C154.377 470.352 153.881 470.48 153.433 470.736C152.985 470.992 152.628 471.365 152.361 471.856C152.094 472.347 151.961 472.923 151.961 473.584C151.961 474.256 152.094 474.843 152.361 475.344C152.628 475.835 152.985 476.213 153.433 476.48C153.881 476.736 154.377 476.864 154.921 476.864C155.465 476.864 155.961 476.736 156.409 476.48C156.868 476.213 157.23 475.835 157.497 475.344C157.764 474.843 157.897 474.261 157.897 473.6ZM165.731 469.072C166.392 469.072 166.99 469.216 167.523 469.504C168.056 469.781 168.472 470.203 168.771 470.768C169.08 471.333 169.235 472.021 169.235 472.832V478H167.795V473.04C167.795 472.165 167.576 471.499 167.139 471.04C166.702 470.571 166.104 470.336 165.347 470.336C164.579 470.336 163.966 470.576 163.507 471.056C163.059 471.536 162.835 472.235 162.835 473.152V478H161.379V466.16H162.835V470.48C163.123 470.032 163.518 469.685 164.019 469.44C164.531 469.195 165.102 469.072 165.731 469.072ZM172.939 470.432V475.6C172.939 476.027 173.03 476.331 173.211 476.512C173.392 476.683 173.707 476.768 174.155 476.768H175.227V478H173.915C173.104 478 172.496 477.813 172.091 477.44C171.686 477.067 171.483 476.453 171.483 475.6V470.432H170.347V469.232H171.483V467.024H172.939V469.232H175.227V470.432H172.939ZM179.629 478.144C178.957 478.144 178.354 478.032 177.821 477.808C177.298 477.573 176.882 477.253 176.573 476.848C176.263 476.432 176.093 475.957 176.061 475.424H177.565C177.607 475.883 177.81 476.256 178.173 476.544C178.546 476.832 179.031 476.976 179.629 476.976C180.194 476.976 180.631 476.853 180.941 476.608C181.261 476.352 181.421 476.021 181.421 475.616C181.421 475.232 181.25 474.949 180.909 474.768C180.567 474.576 180.039 474.389 179.325 474.208C178.674 474.037 178.146 473.867 177.741 473.696C177.335 473.525 176.989 473.275 176.701 472.944C176.413 472.603 176.269 472.155 176.269 471.6C176.269 471.141 176.397 470.72 176.653 470.336C176.909 469.952 177.277 469.648 177.757 469.424C178.247 469.2 178.813 469.088 179.453 469.088C180.423 469.088 181.207 469.333 181.805 469.824C182.402 470.315 182.722 470.987 182.765 471.84H181.309C181.277 471.36 181.09 470.976 180.749 470.688C180.418 470.4 179.97 470.256 179.405 470.256C178.871 470.256 178.45 470.373 178.141 470.608C177.842 470.843 177.693 471.152 177.693 471.536C177.693 471.835 177.789 472.08 177.981 472.272C178.173 472.453 178.407 472.597 178.685 472.704C178.962 472.8 179.357 472.923 179.869 473.072C180.509 473.243 181.021 473.413 181.405 473.584C181.789 473.744 182.119 473.984 182.397 474.304C182.674 474.624 182.813 475.051 182.813 475.584C182.813 476.075 182.679 476.512 182.413 476.896C182.157 477.28 181.789 477.584 181.309 477.808C180.829 478.032 180.269 478.144 179.629 478.144ZM190.221 470.896C190.477 470.32 190.839 469.872 191.309 469.552C191.789 469.232 192.37 469.072 193.053 469.072V470.576H192.669C191.037 470.576 190.221 471.461 190.221 473.232V478H188.765V469.232H190.221V470.896ZM202.283 473.248C202.283 473.515 202.267 473.803 202.235 474.112H195.227C195.27 474.976 195.558 475.659 196.091 476.16C196.635 476.661 197.296 476.912 198.075 476.912C198.704 476.912 199.227 476.768 199.643 476.48C200.07 476.181 200.368 475.787 200.539 475.296H202.107C201.872 476.139 201.403 476.827 200.699 477.36C199.995 477.883 199.12 478.144 198.075 478.144C197.243 478.144 196.496 477.957 195.835 477.584C195.184 477.211 194.672 476.683 194.299 476C193.926 475.307 193.739 474.507 193.739 473.6C193.739 472.693 193.92 471.899 194.283 471.216C194.646 470.533 195.152 470.011 195.803 469.648C196.464 469.275 197.222 469.088 198.075 469.088C198.907 469.088 199.638 469.269 200.267 469.632C200.907 469.995 201.403 470.491 201.755 471.12C202.107 471.749 202.283 472.459 202.283 473.248ZM200.779 473.056C200.779 472.48 200.656 471.989 200.411 471.584C200.166 471.168 199.83 470.853 199.403 470.64C198.987 470.427 198.523 470.32 198.011 470.32C197.264 470.32 196.63 470.565 196.107 471.056C195.584 471.536 195.296 472.203 195.243 473.056H200.779ZM206.842 478.144C206.17 478.144 205.568 478.032 205.034 477.808C204.512 477.573 204.096 477.253 203.786 476.848C203.477 476.432 203.306 475.957 203.274 475.424H204.778C204.821 475.883 205.024 476.256 205.386 476.544C205.76 476.832 206.245 476.976 206.842 476.976C207.408 476.976 207.845 476.853 208.154 476.608C208.474 476.352 208.634 476.021 208.634 475.616C208.634 475.232 208.464 474.949 208.122 474.768C207.781 474.576 207.253 474.389 206.538 474.208C205.888 474.037 205.36 473.867 204.954 473.696C204.549 473.525 204.202 473.275 203.914 472.944C203.626 472.603 203.482 472.155 203.482 471.6C203.482 471.141 203.61 470.72 203.866 470.336C204.122 469.952 204.49 469.648 204.97 469.424C205.461 469.2 206.026 469.088 206.666 469.088C207.637 469.088 208.421 469.333 209.018 469.824C209.616 470.315 209.936 470.987 209.978 471.84H208.522C208.49 471.36 208.304 470.976 207.962 470.688C207.632 470.4 207.184 470.256 206.618 470.256C206.085 470.256 205.664 470.373 205.354 470.608C205.056 470.843 204.906 471.152 204.906 471.536C204.906 471.835 205.002 472.08 205.194 472.272C205.386 472.453 205.621 472.597 205.898 472.704C206.176 472.8 206.57 472.923 207.082 473.072C207.722 473.243 208.234 473.413 208.618 473.584C209.002 473.744 209.333 473.984 209.61 474.304C209.888 474.624 210.026 475.051 210.026 475.584C210.026 476.075 209.893 476.512 209.626 476.896C209.37 477.28 209.002 477.584 208.522 477.808C208.042 478.032 207.482 478.144 206.842 478.144ZM219.663 473.248C219.663 473.515 219.647 473.803 219.615 474.112H212.607C212.65 474.976 212.938 475.659 213.471 476.16C214.015 476.661 214.677 476.912 215.455 476.912C216.085 476.912 216.607 476.768 217.023 476.48C217.45 476.181 217.749 475.787 217.919 475.296H219.487C219.253 476.139 218.783 476.827 218.079 477.36C217.375 477.883 216.501 478.144 215.455 478.144C214.623 478.144 213.877 477.957 213.215 477.584C212.565 477.211 212.053 476.683 211.679 476C211.306 475.307 211.119 474.507 211.119 473.6C211.119 472.693 211.301 471.899 211.663 471.216C212.026 470.533 212.533 470.011 213.183 469.648C213.845 469.275 214.602 469.088 215.455 469.088C216.287 469.088 217.018 469.269 217.647 469.632C218.287 469.995 218.783 470.491 219.135 471.12C219.487 471.749 219.663 472.459 219.663 473.248ZM218.159 473.056C218.159 472.48 218.037 471.989 217.791 471.584C217.546 471.168 217.21 470.853 216.783 470.64C216.367 470.427 215.903 470.32 215.391 470.32C214.645 470.32 214.01 470.565 213.487 471.056C212.965 471.536 212.677 472.203 212.623 473.056H218.159ZM222.591 470.896C222.847 470.32 223.209 469.872 223.679 469.552C224.159 469.232 224.74 469.072 225.423 469.072V470.576H225.039C223.407 470.576 222.591 471.461 222.591 473.232V478H221.135V469.232H222.591V470.896ZM229.917 476.624L232.637 469.232H234.205L230.765 478H229.053L225.613 469.232H227.181L229.917 476.624ZM243.171 473.248C243.171 473.515 243.155 473.803 243.123 474.112H236.115C236.158 474.976 236.446 475.659 236.979 476.16C237.523 476.661 238.185 476.912 238.963 476.912C239.593 476.912 240.115 476.768 240.531 476.48C240.958 476.181 241.257 475.787 241.427 475.296H242.995C242.761 476.139 242.291 476.827 241.587 477.36C240.883 477.883 240.009 478.144 238.963 478.144C238.131 478.144 237.385 477.957 236.723 477.584C236.073 477.211 235.561 476.683 235.187 476C234.814 475.307 234.627 474.507 234.627 473.6C234.627 472.693 234.809 471.899 235.171 471.216C235.534 470.533 236.041 470.011 236.691 469.648C237.353 469.275 238.11 469.088 238.963 469.088C239.795 469.088 240.526 469.269 241.155 469.632C241.795 469.995 242.291 470.491 242.643 471.12C242.995 471.749 243.171 472.459 243.171 473.248ZM241.667 473.056C241.667 472.48 241.545 471.989 241.299 471.584C241.054 471.168 240.718 470.853 240.291 470.64C239.875 470.427 239.411 470.32 238.899 470.32C238.153 470.32 237.518 470.565 236.995 471.056C236.473 471.536 236.185 472.203 236.131 473.056H241.667ZM244.099 473.584C244.099 472.688 244.28 471.904 244.643 471.232C245.005 470.549 245.501 470.021 246.131 469.648C246.771 469.275 247.485 469.088 248.275 469.088C248.957 469.088 249.592 469.248 250.179 469.568C250.765 469.877 251.213 470.288 251.523 470.8V466.16H252.995V478H251.523V476.352C251.235 476.875 250.808 477.307 250.243 477.648C249.677 477.979 249.016 478.144 248.259 478.144C247.48 478.144 246.771 477.952 246.131 477.568C245.501 477.184 245.005 476.645 244.643 475.952C244.28 475.259 244.099 474.469 244.099 473.584ZM251.523 473.6C251.523 472.939 251.389 472.363 251.123 471.872C250.856 471.381 250.493 471.008 250.035 470.752C249.587 470.485 249.091 470.352 248.547 470.352C248.003 470.352 247.507 470.48 247.059 470.736C246.611 470.992 246.253 471.365 245.987 471.856C245.72 472.347 245.587 472.923 245.587 473.584C245.587 474.256 245.72 474.843 245.987 475.344C246.253 475.835 246.611 476.213 247.059 476.48C247.507 476.736 248.003 476.864 248.547 476.864C249.091 476.864 249.587 476.736 250.035 476.48C250.493 476.213 250.856 475.835 251.123 475.344C251.389 474.843 251.523 474.261 251.523 473.6ZM258.904 476.832C260.259 475.744 261.32 474.853 262.088 474.16C262.856 473.467 263.501 472.747 264.024 472C264.557 471.243 264.824 470.507 264.824 469.792C264.824 469.131 264.653 468.603 264.312 468.208C263.971 467.803 263.432 467.6 262.696 467.6C261.971 467.6 261.405 467.829 261 468.288C260.605 468.736 260.392 469.339 260.36 470.096H258.952C258.995 468.901 259.357 467.979 260.04 467.328C260.723 466.677 261.603 466.352 262.68 466.352C263.779 466.352 264.648 466.656 265.288 467.264C265.939 467.861 266.264 468.683 266.264 469.728C266.264 470.581 265.997 471.424 265.464 472.256C264.941 473.088 264.344 473.819 263.672 474.448C263 475.067 262.141 475.803 261.096 476.656H266.6V477.872H258.904V476.832ZM271.865 466.4C270.371 466.4 269.326 466.912 268.729 467.936C268.131 468.96 267.833 470.379 267.833 472.192C267.833 474.005 268.131 475.429 268.729 476.464C269.326 477.488 270.371 478 271.865 478C273.347 478 274.387 477.488 274.985 476.464C275.582 475.429 275.881 474.005 275.881 472.192C275.881 470.379 275.582 468.96 274.985 467.936C274.387 466.912 273.347 466.4 271.865 466.4ZM271.865 467.728C272.579 467.728 273.123 467.925 273.497 468.32C273.881 468.704 274.131 469.216 274.249 469.856C274.377 470.496 274.441 471.275 274.441 472.192C274.441 473.12 274.377 473.904 274.249 474.544C274.131 475.184 273.881 475.701 273.497 476.096C273.123 476.48 272.579 476.672 271.865 476.672C271.139 476.672 270.585 476.48 270.201 476.096C269.827 475.701 269.577 475.184 269.449 474.544C269.331 473.904 269.273 473.12 269.273 472.192C269.273 471.275 269.331 470.496 269.449 469.856C269.577 469.216 269.827 468.704 270.201 468.32C270.585 467.925 271.139 467.728 271.865 467.728ZM277.253 476.832C278.608 475.744 279.669 474.853 280.437 474.16C281.205 473.467 281.85 472.747 282.373 472C282.906 471.243 283.173 470.507 283.173 469.792C283.173 469.131 283.002 468.603 282.661 468.208C282.32 467.803 281.781 467.6 281.045 467.6C280.32 467.6 279.754 467.829 279.349 468.288C278.954 468.736 278.741 469.339 278.709 470.096H277.301C277.344 468.901 277.706 467.979 278.389 467.328C279.072 466.677 279.952 466.352 281.029 466.352C282.128 466.352 282.997 466.656 283.637 467.264C284.288 467.861 284.613 468.683 284.613 469.728C284.613 470.581 284.346 471.424 283.813 472.256C283.29 473.088 282.693 473.819 282.021 474.448C281.349 475.067 280.49 475.803 279.445 476.656H284.949V477.872H277.253V476.832ZM286.15 469.344C286.224 468.363 286.603 467.595 287.286 467.04C287.968 466.485 288.854 466.208 289.942 466.208C290.667 466.208 291.291 466.341 291.814 466.608C292.347 466.864 292.747 467.216 293.014 467.664C293.291 468.112 293.43 468.619 293.43 469.184C293.43 469.845 293.238 470.416 292.854 470.896C292.48 471.376 291.99 471.685 291.382 471.824V471.904C292.075 472.075 292.624 472.411 293.03 472.912C293.435 473.413 293.638 474.069 293.638 474.88C293.638 475.488 293.499 476.037 293.222 476.528C292.944 477.008 292.528 477.387 291.974 477.664C291.419 477.941 290.752 478.08 289.974 478.08C288.843 478.08 287.915 477.787 287.19 477.2C286.464 476.603 286.059 475.76 285.974 474.672H287.382C287.456 475.312 287.718 475.835 288.166 476.24C288.614 476.645 289.211 476.848 289.958 476.848C290.704 476.848 291.27 476.656 291.654 476.272C292.048 475.877 292.246 475.371 292.246 474.752C292.246 473.952 291.979 473.376 291.446 473.024C290.912 472.672 290.107 472.496 289.03 472.496H288.662V471.28H289.046C290.027 471.269 290.768 471.109 291.27 470.8C291.771 470.48 292.022 469.989 292.022 469.328C292.022 468.763 291.835 468.309 291.462 467.968C291.099 467.627 290.576 467.456 289.894 467.456C289.232 467.456 288.699 467.627 288.294 467.968C287.888 468.309 287.648 468.768 287.574 469.344H286.15Z" fill="#003441"/>
</g>
<defs>
<clipPath id="clip0_28_226">
<rect width="358" height="506" rx="30" fill="white"/>
</clipPath>
</defs>
</svg>
