<svg width="323" height="281" viewBox="0 0 323 281" fill="none" xmlns="http://www.w3.org/2000/svg">
<g clip-path="url(#clip0_1200_1103)">
<rect width="323" height="281" rx="30" fill="#014000"/>
<path d="M118.927 124V104.4H128.587C130.771 104.4 132.693 104.801 134.355 105.604C136.016 106.388 137.313 107.508 138.247 108.964C139.18 110.42 139.647 112.156 139.647 114.172C139.647 116.207 139.18 117.961 138.247 119.436C137.313 120.892 136.016 122.021 134.355 122.824C132.693 123.608 130.771 124 128.587 124H118.927ZM125.535 118.848H128.307C129.24 118.848 130.052 118.671 130.743 118.316C131.452 117.961 132.003 117.439 132.395 116.748C132.787 116.039 132.983 115.18 132.983 114.172C132.983 113.183 132.787 112.343 132.395 111.652C132.003 110.961 131.452 110.439 130.743 110.084C130.052 109.729 129.24 109.552 128.307 109.552H125.535V118.848ZM149.505 124.28C147.769 124.28 146.229 123.944 144.885 123.272C143.56 122.581 142.514 121.639 141.749 120.444C140.984 119.249 140.601 117.877 140.601 116.328C140.601 114.779 140.984 113.407 141.749 112.212C142.514 111.017 143.56 110.084 144.885 109.412C146.229 108.74 147.769 108.404 149.505 108.404C151.241 108.404 152.781 108.74 154.125 109.412C155.469 110.084 156.514 111.017 157.261 112.212C158.026 113.407 158.409 114.779 158.409 116.328C158.409 117.877 158.026 119.249 157.261 120.444C156.514 121.639 155.469 122.581 154.125 123.272C152.781 123.944 151.241 124.28 149.505 124.28ZM149.505 119.352C149.972 119.352 150.392 119.24 150.765 119.016C151.138 118.792 151.437 118.456 151.661 118.008C151.885 117.541 151.997 116.981 151.997 116.328C151.997 115.656 151.885 115.105 151.661 114.676C151.437 114.228 151.138 113.892 150.765 113.668C150.392 113.444 149.972 113.332 149.505 113.332C149.038 113.332 148.618 113.444 148.245 113.668C147.872 113.892 147.573 114.228 147.349 114.676C147.125 115.105 147.013 115.656 147.013 116.328C147.013 116.981 147.125 117.541 147.349 118.008C147.573 118.456 147.872 118.792 148.245 119.016C148.618 119.24 149.038 119.352 149.505 119.352ZM170.579 108.404C171.755 108.404 172.819 108.647 173.771 109.132C174.723 109.599 175.47 110.336 176.011 111.344C176.571 112.352 176.851 113.659 176.851 115.264V124H170.523V116.356C170.523 115.404 170.355 114.732 170.019 114.34C169.683 113.929 169.226 113.724 168.647 113.724C168.218 113.724 167.816 113.827 167.443 114.032C167.088 114.219 166.799 114.536 166.575 114.984C166.37 115.432 166.267 116.039 166.267 116.804V124H159.939V108.684H165.959V113.164L164.755 111.876C165.352 110.719 166.155 109.851 167.163 109.272C168.19 108.693 169.328 108.404 170.579 108.404ZM187.878 124.28C186.012 124.28 184.378 123.935 182.978 123.244C181.597 122.553 180.524 121.611 179.758 120.416C178.993 119.203 178.61 117.84 178.61 116.328C178.61 114.779 178.984 113.407 179.73 112.212C180.496 111.017 181.532 110.084 182.838 109.412C184.164 108.74 185.648 108.404 187.29 108.404C188.802 108.404 190.193 108.703 191.462 109.3C192.75 109.897 193.777 110.784 194.542 111.96C195.326 113.136 195.718 114.592 195.718 116.328C195.718 116.552 195.709 116.804 195.69 117.084C195.672 117.345 195.653 117.588 195.634 117.812H183.846V114.76H192.274L189.894 115.572C189.894 114.975 189.782 114.471 189.558 114.06C189.353 113.631 189.064 113.304 188.69 113.08C188.317 112.837 187.869 112.716 187.346 112.716C186.824 112.716 186.366 112.837 185.974 113.08C185.601 113.304 185.312 113.631 185.106 114.06C184.901 114.471 184.798 114.975 184.798 115.572V116.524C184.798 117.177 184.929 117.737 185.19 118.204C185.452 118.671 185.825 119.025 186.31 119.268C186.796 119.492 187.384 119.604 188.074 119.604C188.784 119.604 189.362 119.511 189.81 119.324C190.277 119.137 190.762 118.857 191.266 118.484L194.57 121.816C193.824 122.619 192.9 123.235 191.798 123.664C190.716 124.075 189.409 124.28 187.878 124.28ZM197.741 116.496L196.481 104.4H204.041L202.781 116.496H197.741ZM200.261 124.28C199.178 124.28 198.291 123.953 197.601 123.3C196.91 122.628 196.565 121.835 196.565 120.92C196.565 119.987 196.91 119.203 197.601 118.568C198.291 117.933 199.178 117.616 200.261 117.616C201.362 117.616 202.249 117.933 202.921 118.568C203.611 119.203 203.957 119.987 203.957 120.92C203.957 121.835 203.611 122.628 202.921 123.3C202.249 123.953 201.362 124.28 200.261 124.28Z" fill="white"/>
<path d="M311.667 136.833H220.333C182.556 136.833 151.833 167.556 151.833 205.333V353.75C151.833 356.778 153.036 359.682 155.177 361.823C157.318 363.964 160.222 365.167 163.25 365.167H311.667C349.445 365.167 380.167 334.444 380.167 296.667V205.333C380.167 167.556 349.445 136.833 311.667 136.833ZM357.333 296.667C357.333 321.852 336.852 342.333 311.667 342.333H174.667V205.333C174.667 180.148 195.148 159.667 220.333 159.667H311.667C336.852 159.667 357.333 180.148 357.333 205.333V296.667Z" fill="white" fill-opacity="0.1"/>
<path d="M254.583 269.107L228.405 242.928L212.262 259.072L254.583 301.393L325.447 230.53L309.303 214.387L254.583 269.107Z" fill="white" fill-opacity="0.1"/>
</g>
<rect x="1" y="1" width="321" height="279" rx="29" stroke="white" stroke-width="2"/>
<defs>
<clipPath id="clip0_1200_1103">
<rect width="323" height="281" rx="30" fill="white"/>
</clipPath>
</defs>
</svg>
