<svg width="33" height="32" viewBox="0 0 33 32" fill="none" xmlns="http://www.w3.org/2000/svg">
<path d="M14.5553 5.756C15.1259 3.41467 18.4722 3.41467 19.0428 5.756C19.1284 6.10773 19.2963 6.43437 19.5327 6.70933C19.7691 6.98429 20.0674 7.19981 20.4034 7.33833C20.7393 7.47685 21.1033 7.53447 21.4658 7.50649C21.8283 7.47852 22.1791 7.36574 22.4895 7.17733C24.5565 5.924 26.9235 8.27867 25.6643 10.3373C25.4753 10.6462 25.3621 10.9951 25.3341 11.3557C25.3061 11.7163 25.3639 12.0784 25.5029 12.4125C25.6419 12.7467 25.8582 13.0434 26.1341 13.2787C26.41 13.514 26.7379 13.6812 27.0909 13.7667C29.4432 14.3347 29.4432 17.6653 27.0909 18.2333C26.7375 18.3186 26.4094 18.4856 26.1331 18.7209C25.8569 18.9563 25.6404 19.2532 25.5012 19.5875C25.362 19.9219 25.3041 20.2842 25.3323 20.645C25.3604 21.0059 25.4737 21.355 25.663 21.664C26.9221 23.7213 24.5565 26.0773 22.4882 24.824C22.1779 24.6359 21.8273 24.5233 21.4651 24.4954C21.1028 24.4674 20.739 24.525 20.4033 24.6634C20.0676 24.8017 19.7694 25.017 19.533 25.2916C19.2966 25.5663 19.1287 25.8926 19.0428 26.244C18.4722 28.5853 15.1259 28.5853 14.5553 26.244C14.4697 25.8923 14.3018 25.5656 14.0654 25.2907C13.829 25.0157 13.5307 24.8002 13.1948 24.6617C12.8588 24.5232 12.4948 24.4655 12.1323 24.4935C11.7698 24.5215 11.419 24.6343 11.1086 24.8227C9.04164 26.076 6.67463 23.7213 7.93382 21.6627C8.12284 21.3538 8.23596 21.0049 8.264 20.6443C8.29204 20.2837 8.23421 19.9216 8.0952 19.5875C7.95619 19.2533 7.73993 18.9566 7.464 18.7213C7.18807 18.486 6.86025 18.3188 6.50719 18.2333C4.15491 17.6653 4.15491 14.3347 6.50719 13.7667C6.86056 13.6814 7.18873 13.5144 7.46497 13.2791C7.74122 13.0437 7.95774 12.7468 8.09691 12.4125C8.23608 12.0781 8.29397 11.7158 8.26586 11.355C8.23775 10.9941 8.12445 10.645 7.93516 10.336C6.67597 8.27867 9.04164 5.92267 11.1099 7.176C12.4495 7.98667 14.1856 7.26933 14.5553 5.756Z" stroke="#003441" stroke-width="2.5" stroke-linecap="round" stroke-linejoin="round"/>
<path d="M12.7803 16C12.7803 17.0609 13.2037 18.0783 13.9574 18.8284C14.711 19.5786 15.7332 20 16.799 20C17.8648 20 18.887 19.5786 19.6407 18.8284C20.3943 18.0783 20.8177 17.0609 20.8177 16C20.8177 14.9391 20.3943 13.9217 19.6407 13.1716C18.887 12.4214 17.8648 12 16.799 12C15.7332 12 14.711 12.4214 13.9574 13.1716C13.2037 13.9217 12.7803 14.9391 12.7803 16Z" stroke="#003441" stroke-width="2.5" stroke-linecap="round" stroke-linejoin="round"/>
</svg>
