<svg width="64" height="67" viewBox="0 0 64 67" fill="none" xmlns="http://www.w3.org/2000/svg">
<rect width="64" height="64" rx="20" fill="#A41350"/>
<path d="M32 49.625C31.809 49.622 31.6218 49.5704 31.4563 49.475C31.25 49.3813 26.6 46.7375 21.875 42.5C15.4063 36.6688 12.125 30.875 12.125 25.25C12.1233 22.9227 12.8682 20.6563 14.2503 18.7838C15.6324 16.9114 17.5787 15.5317 19.8032 14.8475C22.0277 14.1634 24.4129 14.2109 26.6084 14.9831C28.8038 15.7553 30.6936 17.2115 32 19.1375C33.3064 17.2115 35.1962 15.7553 37.3917 14.9831C39.5871 14.2109 41.9724 14.1634 44.1968 14.8475C46.4213 15.5317 48.3676 16.9114 49.7497 18.7838C51.1318 20.6563 51.8767 22.9227 51.875 25.25C51.875 30.875 48.5938 36.6688 42.125 42.5C37.4 46.7375 32.75 49.3813 32.5438 49.475C32.3782 49.5704 32.1911 49.622 32 49.625ZM23 16.625C20.7125 16.625 18.5187 17.5337 16.9012 19.1512C15.2837 20.7687 14.375 22.9625 14.375 25.25C14.375 35.9938 28.9625 45.3688 32 47.1875C35.0375 45.3688 49.625 35.9938 49.625 25.25C49.6294 23.2529 48.9405 21.3161 47.6761 19.7703C46.4116 18.2245 44.6499 17.1653 42.6915 16.7737C40.7332 16.382 38.6996 16.6821 36.9379 17.6227C35.1761 18.5633 33.7953 20.0861 33.0313 21.9313C32.9505 22.1392 32.8089 22.3178 32.6248 22.4438C32.4408 22.5697 32.223 22.6371 32 22.6371C31.777 22.6371 31.5592 22.5697 31.3752 22.4438C31.1911 22.3178 31.0495 22.1392 30.9688 21.9313C30.3131 20.3586 29.2064 19.0153 27.7882 18.071C26.37 17.1266 24.7039 16.6235 23 16.625Z" fill="white"/>
</svg>
