<svg width="430" height="932" viewBox="0 0 430 932" fill="none" xmlns="http://www.w3.org/2000/svg">
<g clip-path="url(#clip0_427_2312)">
<rect width="430" height="932" fill="white"/>
<path fill-rule="evenodd" clip-rule="evenodd" d="M23.6804 471.739C69.3662 463.612 112.58 433.401 158.305 441.307C203.551 449.129 243.181 480.288 273.318 514.898C302.873 548.841 299.141 602.732 328.54 636.811C368.478 683.105 459.069 687.413 473.399 746.827C486.628 801.678 414.235 841.57 390.245 892.647C369.663 936.468 359.803 983.332 341.304 1028.07C319.14 1081.67 322.286 1160.99 269.399 1184.9C212.826 1210.48 151.616 1147.69 89.7985 1141.8C44.5069 1137.48 -0.721191 1165.81 -44.8933 1154.92C-88.9133 1144.07 -113.614 1092.1 -157.526 1080.82C-222.209 1064.2 -298.754 1109.16 -356.098 1074.96C-406.421 1044.94 -441.986 975.207 -431 917.693C-417.847 848.832 -334.084 817.594 -295.726 758.89C-274.298 726.096 -268.578 686.469 -255.735 649.468C-241.484 608.413 -245.776 557.598 -215.147 526.744C-184.798 496.171 -135.569 495.783 -93.5695 486.11C-54.8702 477.197 -15.4191 478.694 23.6804 471.739Z" fill="#003441"/>
<path fill-rule="evenodd" clip-rule="evenodd" d="M244.68 1185.26C290.366 1193.39 333.58 1223.6 379.305 1215.69C424.551 1207.87 464.181 1176.71 494.318 1142.1C523.873 1108.16 520.141 1054.27 549.54 1020.19C589.478 973.895 680.069 969.587 694.399 910.173C707.628 855.322 635.235 815.43 611.245 764.353C590.663 720.532 580.803 673.668 562.304 628.93C540.14 575.33 543.286 496.014 490.399 472.099C433.826 446.518 372.616 509.306 310.798 515.204C265.507 519.524 220.279 491.19 176.107 502.081C132.087 512.935 107.386 564.901 63.4741 576.184C-1.20876 592.803 -77.7541 547.836 -135.098 582.041C-185.421 612.058 -220.986 681.793 -210 739.307C-196.847 808.168 -113.084 839.406 -74.7262 898.11C-53.2975 930.904 -47.5779 970.531 -34.7346 1007.53C-20.4844 1048.59 -24.7757 1099.4 5.85275 1130.26C36.2021 1160.83 85.4314 1161.22 127.43 1170.89C166.13 1179.8 205.581 1178.31 244.68 1185.26Z" fill="#BF8148"/>
<path d="M422.172 575.921C426.345 575.769 430.393 575.872 434.317 576.228C438.112 576.205 441.971 576.372 445.894 576.728C454.12 577.312 461.777 578.088 468.866 579.058C475.956 580.028 482.413 581.001 488.237 581.979C492.668 582.585 496.592 582.941 500.008 583.047C503.802 583.024 507.404 582.434 510.812 581.275C514.221 580.116 517.815 578.261 521.594 575.708C525.624 572.649 529.9 568.449 534.422 563.109C536.073 564.238 537.724 565.366 539.375 566.495C540.897 567.245 542.673 568.12 544.703 569.12C537.045 578.905 530.527 588.937 525.149 599.215C519.643 609.114 514.893 618.756 510.901 628.14C506.917 638.789 503.436 649.056 500.459 658.94C497.861 668.696 495.391 678.83 493.051 689.343C490.46 700.363 487.998 711.762 485.665 723.54C483.581 734.81 481.934 744.876 480.721 753.738C480.524 763.1 480.887 771.003 481.811 777.449C482.735 783.895 483.72 789.897 484.765 795.457C485.552 800.259 487.161 804.993 489.593 809.659C491.895 813.946 497.36 818.214 505.987 822.463C507.471 816.889 510.172 813.647 514.087 812.738C518.253 811.322 521.859 811.364 524.903 812.864C528.706 814.106 531.44 816.556 533.106 820.215C535.022 823.366 535.548 826.778 534.685 830.451C533.821 834.125 532.071 837.677 529.436 841.108C526.8 844.539 523.463 847.152 519.426 848.947C511.352 852.537 502.551 850.882 493.023 843.981C488.955 840.717 484.945 836.376 480.991 830.961C477.417 825.416 474.467 818.603 472.142 810.521C470.324 802.69 468.882 794.097 467.814 784.743C467.125 775.26 467.008 766.216 467.463 757.612C467.44 753.817 467.16 749.265 466.622 743.956C466.464 738.517 466.627 734.026 467.111 730.481L289.305 790.928C291.903 802.297 295.709 814.734 300.722 828.239C305.736 841.744 311.435 853.537 317.82 863.619C326.121 876.851 335.929 888.304 347.244 897.976C358.56 907.649 370.436 915.863 382.872 922.62C394.801 929.127 406.912 934.304 419.205 938.152C431.877 941.872 444.73 944.262 457.765 945.322C483.457 947.573 509.618 943.749 536.249 933.85C548.868 928.715 561.479 922.316 574.083 914.651C586.686 906.986 598.65 898.061 609.974 887.874C628.971 870.431 647.873 847.74 666.68 819.799L680.382 826.548C669.861 844.067 659.832 859.306 650.296 872.265C640.631 884.845 631.272 895.843 622.221 905.257C613.548 914.543 604.932 922.753 596.373 929.887C587.685 936.643 579.058 942.956 570.491 948.826C533.953 973.077 497.108 988.349 459.956 994.642C440.876 998.171 422.036 999.295 403.434 998.014C385.21 996.605 367.987 993.165 351.763 987.696C318.422 975.372 291.989 954.784 272.463 925.934C261.754 911.83 252.87 896.261 245.811 879.227C238.753 862.192 233.652 844.703 230.51 826.76C227.246 809.702 225.883 793.266 226.421 777.452C227.21 761.129 229.391 745.178 232.967 729.598C237.179 714.647 242.659 700.32 249.408 686.619C256.536 672.789 265.126 660.152 275.177 648.707C282.464 640.315 290.137 633.06 298.196 626.94C305.747 620.57 313.746 614.894 322.191 609.91C330.508 604.548 338.828 599.818 347.153 595.721C372.761 584.058 397.768 577.457 422.172 575.921ZM474.68 663.268C473.598 651.384 468.917 640.723 460.639 631.286C455.799 625.749 449.823 620.598 442.711 615.834C435.849 610.562 427.859 606.941 418.74 604.971C409.492 602.623 399.494 601.797 388.746 602.494C378.377 603.061 368.837 604.826 360.127 607.787L358.422 608.366C349.462 611.835 341.456 616.247 334.404 621.601C327.731 626.827 321.319 633.443 315.169 641.449C309.397 649.326 303.822 658.403 298.444 668.681C293.445 678.83 289.589 689.858 286.877 701.765C282.074 723.677 282.093 747.963 286.931 774.625L471.554 711.86C471.297 711.103 471.418 710.217 471.918 709.202C472.88 700.847 473.782 692.936 474.623 685.468C475.335 677.621 475.354 670.221 474.68 663.268Z" fill="white" fill-opacity="0.1"/>
<path d="M116.085 839V834.845L116.52 836.045L111.96 828.5H114.045L117.705 834.575H116.535L120.225 828.5H122.145L117.585 836.045L118.035 834.845V839H116.085ZM125.948 839.105C125.128 839.105 124.398 838.93 123.758 838.58C123.118 838.22 122.613 837.73 122.243 837.11C121.873 836.49 121.688 835.785 121.688 834.995C121.688 834.195 121.873 833.49 122.243 832.88C122.613 832.26 123.118 831.775 123.758 831.425C124.398 831.075 125.128 830.9 125.948 830.9C126.778 830.9 127.513 831.075 128.153 831.425C128.803 831.775 129.308 832.255 129.668 832.865C130.038 833.475 130.223 834.185 130.223 834.995C130.223 835.785 130.038 836.49 129.668 837.11C129.308 837.73 128.803 838.22 128.153 838.58C127.513 838.93 126.778 839.105 125.948 839.105ZM125.948 837.5C126.408 837.5 126.818 837.4 127.178 837.2C127.538 837 127.818 836.71 128.018 836.33C128.228 835.95 128.333 835.505 128.333 834.995C128.333 834.475 128.228 834.03 128.018 833.66C127.818 833.28 127.538 832.99 127.178 832.79C126.818 832.59 126.413 832.49 125.963 832.49C125.503 832.49 125.093 832.59 124.733 832.79C124.383 832.99 124.103 833.28 123.893 833.66C123.683 834.03 123.578 834.475 123.578 834.995C123.578 835.505 123.683 835.95 123.893 836.33C124.103 836.71 124.383 837 124.733 837.2C125.093 837.4 125.498 837.5 125.948 837.5ZM135.406 839.105C134.726 839.105 134.126 838.98 133.606 838.73C133.086 838.47 132.681 838.08 132.391 837.56C132.101 837.03 131.956 836.365 131.956 835.565V830.99H133.831V835.31C133.831 836.03 133.991 836.57 134.311 836.93C134.641 837.28 135.106 837.455 135.706 837.455C136.146 837.455 136.526 837.365 136.846 837.185C137.176 837.005 137.431 836.735 137.611 836.375C137.801 836.015 137.896 835.57 137.896 835.04V830.99H139.771V839H137.986V836.84L138.301 837.5C138.031 838.02 137.636 838.42 137.116 838.7C136.596 838.97 136.026 839.105 135.406 839.105ZM142.226 839V830.99H144.011V833.195L143.801 832.55C144.041 832.01 144.416 831.6 144.926 831.32C145.446 831.04 146.091 830.9 146.861 830.9V832.685C146.781 832.665 146.706 832.655 146.636 832.655C146.566 832.645 146.496 832.64 146.426 832.64C145.716 832.64 145.151 832.85 144.731 833.27C144.311 833.68 144.101 834.295 144.101 835.115V839H142.226ZM154.65 832.865H159.87V834.47H154.65V832.865ZM154.8 837.365H160.725V839H152.85V828.5H160.515V830.135H154.8V837.365ZM162.719 839V827.87H164.594V839H162.719ZM170.82 839.105C169.93 839.105 169.15 838.93 168.48 838.58C167.82 838.22 167.305 837.73 166.935 837.11C166.575 836.49 166.395 835.785 166.395 834.995C166.395 834.195 166.57 833.49 166.92 832.88C167.28 832.26 167.77 831.775 168.39 831.425C169.02 831.075 169.735 830.9 170.535 830.9C171.315 830.9 172.01 831.07 172.62 831.41C173.23 831.75 173.71 832.23 174.06 832.85C174.41 833.47 174.585 834.2 174.585 835.04C174.585 835.12 174.58 835.21 174.57 835.31C174.57 835.41 174.565 835.505 174.555 835.595H167.88V834.35H173.565L172.83 834.74C172.84 834.28 172.745 833.875 172.545 833.525C172.345 833.175 172.07 832.9 171.72 832.7C171.38 832.5 170.985 832.4 170.535 832.4C170.075 832.4 169.67 832.5 169.32 832.7C168.98 832.9 168.71 833.18 168.51 833.54C168.32 833.89 168.225 834.305 168.225 834.785V835.085C168.225 835.565 168.335 835.99 168.555 836.36C168.775 836.73 169.085 837.015 169.485 837.215C169.885 837.415 170.345 837.515 170.865 837.515C171.315 837.515 171.72 837.445 172.08 837.305C172.44 837.165 172.76 836.945 173.04 836.645L174.045 837.8C173.685 838.22 173.23 838.545 172.68 838.775C172.14 838.995 171.52 839.105 170.82 839.105ZM180.061 839.105C179.221 839.105 178.471 838.93 177.811 838.58C177.161 838.22 176.651 837.73 176.281 837.11C175.911 836.49 175.726 835.785 175.726 834.995C175.726 834.195 175.911 833.49 176.281 832.88C176.651 832.26 177.161 831.775 177.811 831.425C178.471 831.075 179.221 830.9 180.061 830.9C180.841 830.9 181.526 831.06 182.116 831.38C182.716 831.69 183.171 832.15 183.481 832.76L182.041 833.6C181.801 833.22 181.506 832.94 181.156 832.76C180.816 832.58 180.446 832.49 180.046 832.49C179.586 832.49 179.171 832.59 178.801 832.79C178.431 832.99 178.141 833.28 177.931 833.66C177.721 834.03 177.616 834.475 177.616 834.995C177.616 835.515 177.721 835.965 177.931 836.345C178.141 836.715 178.431 837 178.801 837.2C179.171 837.4 179.586 837.5 180.046 837.5C180.446 837.5 180.816 837.41 181.156 837.23C181.506 837.05 181.801 836.77 182.041 836.39L183.481 837.23C183.171 837.83 182.716 838.295 182.116 838.625C181.526 838.945 180.841 839.105 180.061 839.105ZM188.22 839.105C187.34 839.105 186.66 838.88 186.18 838.43C185.7 837.97 185.46 837.295 185.46 836.405V829.22H187.335V836.36C187.335 836.74 187.43 837.035 187.62 837.245C187.82 837.455 188.095 837.56 188.445 837.56C188.865 837.56 189.215 837.45 189.495 837.23L190.02 838.565C189.8 838.745 189.53 838.88 189.21 838.97C188.89 839.06 188.56 839.105 188.22 839.105ZM184.14 832.55V831.05H189.48V832.55H184.14ZM191.562 839V830.99H193.347V833.195L193.137 832.55C193.377 832.01 193.752 831.6 194.262 831.32C194.782 831.04 195.427 830.9 196.197 830.9V832.685C196.117 832.665 196.042 832.655 195.972 832.655C195.902 832.645 195.832 832.64 195.762 832.64C195.052 832.64 194.487 832.85 194.067 833.27C193.647 833.68 193.437 834.295 193.437 835.115V839H191.562ZM201.314 839.105C200.494 839.105 199.764 838.93 199.124 838.58C198.484 838.22 197.979 837.73 197.609 837.11C197.239 836.49 197.054 835.785 197.054 834.995C197.054 834.195 197.239 833.49 197.609 832.88C197.979 832.26 198.484 831.775 199.124 831.425C199.764 831.075 200.494 830.9 201.314 830.9C202.144 830.9 202.879 831.075 203.519 831.425C204.169 831.775 204.674 832.255 205.034 832.865C205.404 833.475 205.589 834.185 205.589 834.995C205.589 835.785 205.404 836.49 205.034 837.11C204.674 837.73 204.169 838.22 203.519 838.58C202.879 838.93 202.144 839.105 201.314 839.105ZM201.314 837.5C201.774 837.5 202.184 837.4 202.544 837.2C202.904 837 203.184 836.71 203.384 836.33C203.594 835.95 203.699 835.505 203.699 834.995C203.699 834.475 203.594 834.03 203.384 833.66C203.184 833.28 202.904 832.99 202.544 832.79C202.184 832.59 201.779 832.49 201.329 832.49C200.869 832.49 200.459 832.59 200.099 832.79C199.749 832.99 199.469 833.28 199.259 833.66C199.049 834.03 198.944 834.475 198.944 834.995C198.944 835.505 199.049 835.95 199.259 836.33C199.469 836.71 199.749 837 200.099 837.2C200.459 837.4 200.864 837.5 201.314 837.5ZM211.927 830.9C212.567 830.9 213.137 831.025 213.637 831.275C214.147 831.525 214.547 831.91 214.837 832.43C215.127 832.94 215.272 833.6 215.272 834.41V839H213.397V834.65C213.397 833.94 213.227 833.41 212.887 833.06C212.557 832.71 212.092 832.535 211.492 832.535C211.052 832.535 210.662 832.625 210.322 832.805C209.982 832.985 209.717 833.255 209.527 833.615C209.347 833.965 209.257 834.41 209.257 834.95V839H207.382V830.99H209.167V833.15L208.852 832.49C209.132 831.98 209.537 831.59 210.067 831.32C210.607 831.04 211.227 830.9 211.927 830.9ZM217.651 839V830.99H219.526V839H217.651ZM218.596 829.67C218.246 829.67 217.956 829.56 217.726 829.34C217.506 829.12 217.396 828.855 217.396 828.545C217.396 828.225 217.506 827.96 217.726 827.75C217.956 827.53 218.246 827.42 218.596 827.42C218.946 827.42 219.231 827.525 219.451 827.735C219.681 827.935 219.796 828.19 219.796 828.5C219.796 828.83 219.686 829.11 219.466 829.34C219.246 829.56 218.956 829.67 218.596 829.67ZM225.662 839.105C224.822 839.105 224.072 838.93 223.412 838.58C222.762 838.22 222.252 837.73 221.882 837.11C221.512 836.49 221.327 835.785 221.327 834.995C221.327 834.195 221.512 833.49 221.882 832.88C222.252 832.26 222.762 831.775 223.412 831.425C224.072 831.075 224.822 830.9 225.662 830.9C226.442 830.9 227.127 831.06 227.717 831.38C228.317 831.69 228.772 832.15 229.082 832.76L227.642 833.6C227.402 833.22 227.107 832.94 226.757 832.76C226.417 832.58 226.047 832.49 225.647 832.49C225.187 832.49 224.772 832.59 224.402 832.79C224.032 832.99 223.742 833.28 223.532 833.66C223.322 834.03 223.217 834.475 223.217 834.995C223.217 835.515 223.322 835.965 223.532 836.345C223.742 836.715 224.032 837 224.402 837.2C224.772 837.4 225.187 837.5 225.647 837.5C226.047 837.5 226.417 837.41 226.757 837.23C227.107 837.05 227.402 836.77 227.642 836.39L229.082 837.23C228.772 837.83 228.317 838.295 227.717 838.625C227.127 838.945 226.442 839.105 225.662 839.105ZM237.158 839V830.15H233.678V828.5H242.588V830.15H239.108V839H237.158ZM246.651 839.105C245.831 839.105 245.101 838.93 244.461 838.58C243.821 838.22 243.316 837.73 242.946 837.11C242.576 836.49 242.391 835.785 242.391 834.995C242.391 834.195 242.576 833.49 242.946 832.88C243.316 832.26 243.821 831.775 244.461 831.425C245.101 831.075 245.831 830.9 246.651 830.9C247.481 830.9 248.216 831.075 248.856 831.425C249.506 831.775 250.011 832.255 250.371 832.865C250.741 833.475 250.926 834.185 250.926 834.995C250.926 835.785 250.741 836.49 250.371 837.11C250.011 837.73 249.506 838.22 248.856 838.58C248.216 838.93 247.481 839.105 246.651 839.105ZM246.651 837.5C247.111 837.5 247.521 837.4 247.881 837.2C248.241 837 248.521 836.71 248.721 836.33C248.931 835.95 249.036 835.505 249.036 834.995C249.036 834.475 248.931 834.03 248.721 833.66C248.521 833.28 248.241 832.99 247.881 832.79C247.521 832.59 247.116 832.49 246.666 832.49C246.206 832.49 245.796 832.59 245.436 832.79C245.086 832.99 244.806 833.28 244.596 833.66C244.386 834.03 244.281 834.475 244.281 834.995C244.281 835.505 244.386 835.95 244.596 836.33C244.806 836.71 245.086 837 245.436 837.2C245.796 837.4 246.201 837.5 246.651 837.5ZM256.109 839.105C255.429 839.105 254.829 838.98 254.309 838.73C253.789 838.47 253.384 838.08 253.094 837.56C252.804 837.03 252.659 836.365 252.659 835.565V830.99H254.534V835.31C254.534 836.03 254.694 836.57 255.014 836.93C255.344 837.28 255.809 837.455 256.409 837.455C256.849 837.455 257.229 837.365 257.549 837.185C257.879 837.005 258.134 836.735 258.314 836.375C258.504 836.015 258.599 835.57 258.599 835.04V830.99H260.474V839H258.689V836.84L259.004 837.5C258.734 838.02 258.339 838.42 257.819 838.7C257.299 838.97 256.729 839.105 256.109 839.105ZM262.929 839V830.99H264.714V833.195L264.504 832.55C264.744 832.01 265.119 831.6 265.629 831.32C266.149 831.04 266.794 830.9 267.564 830.9V832.685C267.484 832.665 267.409 832.655 267.339 832.655C267.269 832.645 267.199 832.64 267.129 832.64C266.419 832.64 265.854 832.85 265.434 833.27C265.014 833.68 264.804 834.295 264.804 835.115V839H262.929ZM278.459 839.15C277.639 839.15 276.884 839.02 276.194 838.76C275.514 838.49 274.919 838.115 274.409 837.635C273.899 837.145 273.504 836.57 273.224 835.91C272.944 835.25 272.804 834.53 272.804 833.75C272.804 832.97 272.944 832.25 273.224 831.59C273.504 830.93 273.899 830.36 274.409 829.88C274.929 829.39 275.534 829.015 276.224 828.755C276.914 828.485 277.669 828.35 278.489 828.35C279.379 828.35 280.179 828.495 280.889 828.785C281.609 829.075 282.214 829.5 282.704 830.06L281.474 831.26C281.064 830.85 280.619 830.55 280.139 830.36C279.669 830.16 279.149 830.06 278.579 830.06C278.029 830.06 277.519 830.15 277.049 830.33C276.579 830.51 276.174 830.765 275.834 831.095C275.494 831.425 275.229 831.815 275.039 832.265C274.859 832.715 274.769 833.21 274.769 833.75C274.769 834.28 274.859 834.77 275.039 835.22C275.229 835.67 275.494 836.065 275.834 836.405C276.174 836.735 276.574 836.99 277.034 837.17C277.494 837.35 278.004 837.44 278.564 837.44C279.084 837.44 279.584 837.36 280.064 837.2C280.554 837.03 281.019 836.75 281.459 836.36L282.569 837.815C282.019 838.255 281.379 838.59 280.649 838.82C279.929 839.04 279.199 839.15 278.459 839.15ZM280.724 837.56V833.63H282.569V837.815L280.724 837.56ZM288.35 839.105C287.67 839.105 287.07 838.98 286.55 838.73C286.03 838.47 285.625 838.08 285.335 837.56C285.045 837.03 284.9 836.365 284.9 835.565V830.99H286.775V835.31C286.775 836.03 286.935 836.57 287.255 836.93C287.585 837.28 288.05 837.455 288.65 837.455C289.09 837.455 289.47 837.365 289.79 837.185C290.12 837.005 290.375 836.735 290.555 836.375C290.745 836.015 290.84 835.57 290.84 835.04V830.99H292.715V839H290.93V836.84L291.245 837.5C290.975 838.02 290.58 838.42 290.06 838.7C289.54 838.97 288.97 839.105 288.35 839.105ZM295.17 839V830.99H297.045V839H295.17ZM296.115 829.67C295.765 829.67 295.475 829.56 295.245 829.34C295.025 829.12 294.915 828.855 294.915 828.545C294.915 828.225 295.025 827.96 295.245 827.75C295.475 827.53 295.765 827.42 296.115 827.42C296.465 827.42 296.75 827.525 296.97 827.735C297.2 827.935 297.315 828.19 297.315 828.5C297.315 828.83 297.205 829.11 296.985 829.34C296.765 829.56 296.475 829.67 296.115 829.67ZM302.896 839.105C302.126 839.105 301.431 838.935 300.811 838.595C300.201 838.245 299.721 837.765 299.371 837.155C299.021 836.545 298.846 835.825 298.846 834.995C298.846 834.165 299.021 833.445 299.371 832.835C299.721 832.225 300.201 831.75 300.811 831.41C301.431 831.07 302.126 830.9 302.896 830.9C303.566 830.9 304.166 831.05 304.696 831.35C305.226 831.64 305.646 832.085 305.956 832.685C306.266 833.285 306.421 834.055 306.421 834.995C306.421 835.925 306.271 836.695 305.971 837.305C305.671 837.905 305.256 838.355 304.726 838.655C304.196 838.955 303.586 839.105 302.896 839.105ZM303.121 837.5C303.571 837.5 303.971 837.4 304.321 837.2C304.681 837 304.966 836.71 305.176 836.33C305.396 835.95 305.506 835.505 305.506 834.995C305.506 834.475 305.396 834.03 305.176 833.66C304.966 833.28 304.681 832.99 304.321 832.79C303.971 832.59 303.571 832.49 303.121 832.49C302.671 832.49 302.266 832.59 301.906 832.79C301.556 832.99 301.271 833.28 301.051 833.66C300.841 834.03 300.736 834.475 300.736 834.995C300.736 835.505 300.841 835.95 301.051 836.33C301.271 836.71 301.556 837 301.906 837.2C302.266 837.4 302.671 837.5 303.121 837.5ZM305.551 839V837.11L305.626 834.98L305.476 832.85V827.87H307.336V839H305.551ZM313.569 839.105C312.679 839.105 311.899 838.93 311.229 838.58C310.569 838.22 310.054 837.73 309.684 837.11C309.324 836.49 309.144 835.785 309.144 834.995C309.144 834.195 309.319 833.49 309.669 832.88C310.029 832.26 310.519 831.775 311.139 831.425C311.769 831.075 312.484 830.9 313.284 830.9C314.064 830.9 314.759 831.07 315.369 831.41C315.979 831.75 316.459 832.23 316.809 832.85C317.159 833.47 317.334 834.2 317.334 835.04C317.334 835.12 317.329 835.21 317.319 835.31C317.319 835.41 317.314 835.505 317.304 835.595H310.629V834.35H316.314L315.579 834.74C315.589 834.28 315.494 833.875 315.294 833.525C315.094 833.175 314.819 832.9 314.469 832.7C314.129 832.5 313.734 832.4 313.284 832.4C312.824 832.4 312.419 832.5 312.069 832.7C311.729 832.9 311.459 833.18 311.259 833.54C311.069 833.89 310.974 834.305 310.974 834.785V835.085C310.974 835.565 311.084 835.99 311.304 836.36C311.524 836.73 311.834 837.015 312.234 837.215C312.634 837.415 313.094 837.515 313.614 837.515C314.064 837.515 314.469 837.445 314.829 837.305C315.189 837.165 315.509 836.945 315.789 836.645L316.794 837.8C316.434 838.22 315.979 838.545 315.429 838.775C314.889 838.995 314.269 839.105 313.569 839.105Z" fill="white"/>
<path d="M207.752 201.395C209.143 201.345 210.493 201.379 211.8 201.498C213.065 201.49 214.352 201.546 215.659 201.665C218.401 201.859 220.954 202.118 223.317 202.441C225.68 202.764 227.832 203.089 229.774 203.415C231.251 203.617 232.559 203.735 233.697 203.771C234.962 203.763 236.163 203.566 237.299 203.18C238.435 202.794 239.633 202.175 240.893 201.325C242.236 200.305 243.661 198.905 245.169 197.125C245.719 197.501 246.269 197.877 246.82 198.253C247.327 198.503 247.919 198.795 248.596 199.128C246.043 202.39 243.871 205.734 242.078 209.16C240.242 212.46 238.659 215.674 237.329 218.802C236 222.352 234.84 225.774 233.848 229.069C232.982 232.32 232.159 235.698 231.378 239.203C230.515 242.876 229.694 246.676 228.916 250.602C228.222 254.359 227.673 257.714 227.269 260.668C227.203 263.788 227.324 266.423 227.632 268.571C227.94 270.72 228.268 272.721 228.616 274.574C228.879 276.175 229.415 277.753 230.226 279.308C230.993 280.737 232.815 282.16 235.69 283.576C236.185 281.718 237.085 280.637 238.391 280.335C239.779 279.862 240.981 279.876 241.996 280.376C243.263 280.79 244.175 281.607 244.73 282.827C245.369 283.877 245.544 285.014 245.256 286.239C244.968 287.463 244.385 288.647 243.507 289.791C242.628 290.935 241.516 291.806 240.17 292.404C237.479 293.601 234.545 293.049 231.369 290.749C230.013 289.661 228.676 288.214 227.359 286.409C226.167 284.561 225.184 282.289 224.409 279.596C223.803 276.985 223.322 274.121 222.966 271.003C222.736 267.842 222.697 264.827 222.849 261.959C222.841 260.694 222.748 259.177 222.569 257.407C222.516 255.594 222.57 254.097 222.732 252.915L163.463 273.065C164.329 276.854 165.598 281 167.269 285.501C168.94 290.003 170.84 293.934 172.968 297.295C175.735 301.705 179.004 305.523 182.776 308.747C186.548 311.971 190.507 314.71 194.652 316.962C198.629 319.131 202.666 320.856 206.763 322.139C210.987 323.379 215.271 324.176 219.616 324.529C228.18 325.279 236.901 324.005 245.778 320.705C249.984 318.994 254.188 316.86 258.389 314.305C262.59 311.751 266.578 308.775 270.353 305.38C276.685 299.565 282.986 292.002 289.255 282.688L293.822 284.938C290.315 290.777 286.972 295.857 283.793 300.177C280.572 304.37 277.452 308.036 274.435 311.174C271.544 314.269 268.672 317.006 265.819 319.384C262.923 321.636 260.047 323.74 257.192 325.697C245.012 333.781 232.731 338.871 220.347 340.969C213.987 342.145 207.707 342.52 201.506 342.093C195.431 341.623 189.69 340.477 184.282 338.654C173.169 334.546 164.358 327.683 157.849 318.066C154.279 313.365 151.318 308.175 148.965 302.497C146.612 296.819 144.912 290.989 143.865 285.008C142.777 279.323 142.322 273.844 142.502 268.572C142.765 263.131 143.492 257.814 144.684 252.621C146.088 247.637 147.914 242.862 150.164 238.295C152.54 233.685 155.403 229.472 158.754 225.658C161.183 222.86 163.74 220.442 166.427 218.402C168.944 216.279 171.61 214.386 174.425 212.725C177.197 210.938 179.971 209.361 182.746 207.995C191.282 204.108 199.617 201.908 207.752 201.395ZM225.255 230.511C224.894 226.55 223.334 222.996 220.574 219.85C218.961 218.005 216.969 216.288 214.599 214.7C212.311 212.942 209.648 211.735 206.608 211.079C203.525 210.296 200.193 210.021 196.61 210.253C193.154 210.442 189.974 211.03 187.07 212.017L186.502 212.211C183.515 213.367 180.847 214.837 178.496 216.622C176.272 218.364 174.135 220.569 172.084 223.238C170.16 225.864 168.302 228.89 166.509 232.316C164.843 235.699 163.558 239.375 162.654 243.343C161.053 250.647 161.059 258.743 162.672 267.63L224.213 246.708C224.127 246.456 224.167 246.161 224.334 245.822C224.655 243.038 224.955 240.4 225.236 237.911C225.473 235.295 225.48 232.829 225.255 230.511Z" fill="#BF8148"/>
<path d="M120.864 852.144C121.807 852.144 122.647 852.359 123.384 852.788C124.122 853.208 124.691 853.796 125.092 854.552C125.503 855.299 125.708 856.153 125.708 857.114C125.708 858.075 125.503 858.934 125.092 859.69C124.691 860.437 124.122 861.025 123.384 861.454C122.647 861.874 121.807 862.084 120.864 862.084C119.912 862.084 119.068 861.874 118.33 861.454C117.593 861.025 117.019 860.437 116.608 859.69C116.198 858.934 115.992 858.075 115.992 857.114C115.992 856.153 116.198 855.299 116.608 854.552C117.019 853.796 117.593 853.208 118.33 852.788C119.068 852.359 119.912 852.144 120.864 852.144ZM120.864 852.704C119.996 852.704 119.24 852.891 118.596 853.264C117.952 853.628 117.458 854.141 117.112 854.804C116.767 855.467 116.594 856.237 116.594 857.114C116.594 857.982 116.767 858.752 117.112 859.424C117.458 860.087 117.952 860.605 118.596 860.978C119.24 861.351 119.996 861.538 120.864 861.538C121.723 861.538 122.47 861.351 123.104 860.978C123.748 860.605 124.243 860.087 124.588 859.424C124.934 858.752 125.106 857.982 125.106 857.114C125.106 856.237 124.934 855.467 124.588 854.804C124.243 854.141 123.748 853.628 123.104 853.264C122.47 852.891 121.723 852.704 120.864 852.704ZM120.836 853.866C120.276 853.866 119.763 853.997 119.296 854.258C118.839 854.519 118.475 854.897 118.204 855.392C117.934 855.877 117.798 856.447 117.798 857.1C117.798 857.753 117.934 858.327 118.204 858.822C118.475 859.307 118.839 859.685 119.296 859.956C119.763 860.217 120.276 860.348 120.836 860.348C121.536 860.348 122.143 860.161 122.656 859.788C123.17 859.405 123.52 858.897 123.706 858.262H122.53C122.25 859.037 121.686 859.424 120.836 859.424C120.276 859.424 119.819 859.223 119.464 858.822C119.11 858.421 118.932 857.851 118.932 857.114C118.932 856.367 119.11 855.793 119.464 855.392C119.819 854.991 120.276 854.79 120.836 854.79C121.247 854.79 121.602 854.893 121.9 855.098C122.199 855.294 122.409 855.579 122.53 855.952H123.706C123.529 855.289 123.184 854.776 122.67 854.412C122.157 854.048 121.546 853.866 120.836 853.866ZM131.578 853.278V856.54H135.134V857.59H131.578V860.95H135.554V862H130.304V852.228H135.554V853.278H131.578ZM138.585 855.378V859.9C138.585 860.273 138.664 860.539 138.823 860.698C138.982 860.847 139.257 860.922 139.649 860.922H140.587V862H139.439C138.73 862 138.198 861.837 137.843 861.51C137.488 861.183 137.311 860.647 137.311 859.9V855.378H136.317V854.328H137.311V852.396H138.585V854.328H140.587V855.378H138.585ZM142.954 851.64V862H141.68V851.64H142.954ZM144.199 858.136C144.199 857.352 144.358 856.666 144.675 856.078C144.992 855.481 145.426 855.019 145.977 854.692C146.537 854.365 147.158 854.202 147.839 854.202C148.511 854.202 149.094 854.347 149.589 854.636C150.084 854.925 150.452 855.289 150.695 855.728V854.328H151.983V862H150.695V860.572C150.443 861.02 150.065 861.393 149.561 861.692C149.066 861.981 148.488 862.126 147.825 862.126C147.144 862.126 146.528 861.958 145.977 861.622C145.426 861.286 144.992 860.815 144.675 860.208C144.358 859.601 144.199 858.911 144.199 858.136ZM150.695 858.15C150.695 857.571 150.578 857.067 150.345 856.638C150.112 856.209 149.794 855.882 149.393 855.658C149.001 855.425 148.567 855.308 148.091 855.308C147.615 855.308 147.181 855.42 146.789 855.644C146.397 855.868 146.084 856.195 145.851 856.624C145.618 857.053 145.501 857.557 145.501 858.136C145.501 858.724 145.618 859.237 145.851 859.676C146.084 860.105 146.397 860.437 146.789 860.67C147.181 860.894 147.615 861.006 148.091 861.006C148.567 861.006 149.001 860.894 149.393 860.67C149.794 860.437 150.112 860.105 150.345 859.676C150.578 859.237 150.695 858.729 150.695 858.15ZM156.402 862.126C155.814 862.126 155.286 862.028 154.82 861.832C154.353 861.627 153.984 861.347 153.714 860.992C153.443 860.628 153.294 860.213 153.266 859.746H154.582C154.619 860.129 154.796 860.441 155.114 860.684C155.44 860.927 155.865 861.048 156.388 861.048C156.873 861.048 157.256 860.941 157.536 860.726C157.816 860.511 157.956 860.241 157.956 859.914C157.956 859.578 157.806 859.331 157.508 859.172C157.209 859.004 156.747 858.841 156.122 858.682C155.552 858.533 155.086 858.383 154.722 858.234C154.367 858.075 154.059 857.847 153.798 857.548C153.546 857.24 153.42 856.839 153.42 856.344C153.42 855.952 153.536 855.593 153.77 855.266C154.003 854.939 154.334 854.683 154.764 854.496C155.193 854.3 155.683 854.202 156.234 854.202C157.083 854.202 157.769 854.417 158.292 854.846C158.814 855.275 159.094 855.863 159.132 856.61H157.858C157.83 856.209 157.666 855.887 157.368 855.644C157.078 855.401 156.686 855.28 156.192 855.28C155.734 855.28 155.37 855.378 155.1 855.574C154.829 855.77 154.694 856.027 154.694 856.344C154.694 856.596 154.773 856.806 154.932 856.974C155.1 857.133 155.305 857.263 155.548 857.366C155.8 857.459 156.145 857.567 156.584 857.688C157.134 857.837 157.582 857.987 157.928 858.136C158.273 858.276 158.567 858.491 158.81 858.78C159.062 859.069 159.192 859.447 159.202 859.914C159.202 860.334 159.085 860.712 158.852 861.048C158.618 861.384 158.287 861.65 157.858 861.846C157.438 862.033 156.952 862.126 156.402 862.126ZM163.355 858.136C163.355 857.352 163.514 856.666 163.831 856.078C164.149 855.481 164.583 855.019 165.133 854.692C165.693 854.365 166.314 854.202 166.995 854.202C167.667 854.202 168.251 854.347 168.745 854.636C169.24 854.925 169.609 855.289 169.851 855.728V854.328H171.139V862H169.851V860.572C169.599 861.02 169.221 861.393 168.717 861.692C168.223 861.981 167.644 862.126 166.981 862.126C166.3 862.126 165.684 861.958 165.133 861.622C164.583 861.286 164.149 860.815 163.831 860.208C163.514 859.601 163.355 858.911 163.355 858.136ZM169.851 858.15C169.851 857.571 169.735 857.067 169.501 856.638C169.268 856.209 168.951 855.882 168.549 855.658C168.157 855.425 167.723 855.308 167.247 855.308C166.771 855.308 166.337 855.42 165.945 855.644C165.553 855.868 165.241 856.195 165.007 856.624C164.774 857.053 164.657 857.557 164.657 858.136C164.657 858.724 164.774 859.237 165.007 859.676C165.241 860.105 165.553 860.437 165.945 860.67C166.337 860.894 166.771 861.006 167.247 861.006C167.723 861.006 168.157 860.894 168.549 860.67C168.951 860.437 169.268 860.105 169.501 859.676C169.735 859.237 169.851 858.729 169.851 858.15ZM174.116 851.64V862H172.842V851.64H174.116ZM177.111 851.64V862H175.837V851.64H177.111ZM183.388 855.574C183.612 855.135 183.929 854.795 184.34 854.552C184.76 854.309 185.268 854.188 185.866 854.188V855.504H185.53C184.102 855.504 183.388 856.279 183.388 857.828V862H182.114V854.328H183.388V855.574ZM187.544 853.082C187.301 853.082 187.096 852.998 186.928 852.83C186.76 852.662 186.676 852.457 186.676 852.214C186.676 851.971 186.76 851.766 186.928 851.598C187.096 851.43 187.301 851.346 187.544 851.346C187.777 851.346 187.973 851.43 188.132 851.598C188.3 851.766 188.384 851.971 188.384 852.214C188.384 852.457 188.3 852.662 188.132 852.83C187.973 852.998 187.777 853.082 187.544 853.082ZM188.16 854.328V862H186.886V854.328H188.16ZM193.045 854.202C193.707 854.202 194.286 854.347 194.781 854.636C195.285 854.925 195.658 855.289 195.901 855.728V854.328H197.189V862.168C197.189 862.868 197.039 863.489 196.741 864.03C196.442 864.581 196.013 865.01 195.453 865.318C194.902 865.626 194.258 865.78 193.521 865.78C192.513 865.78 191.673 865.542 191.001 865.066C190.329 864.59 189.932 863.941 189.811 863.12H191.071C191.211 863.587 191.5 863.96 191.939 864.24C192.377 864.529 192.905 864.674 193.521 864.674C194.221 864.674 194.79 864.455 195.229 864.016C195.677 863.577 195.901 862.961 195.901 862.168V860.558C195.649 861.006 195.275 861.379 194.781 861.678C194.286 861.977 193.707 862.126 193.045 862.126C192.363 862.126 191.743 861.958 191.183 861.622C190.632 861.286 190.198 860.815 189.881 860.208C189.563 859.601 189.405 858.911 189.405 858.136C189.405 857.352 189.563 856.666 189.881 856.078C190.198 855.481 190.632 855.019 191.183 854.692C191.743 854.365 192.363 854.202 193.045 854.202ZM195.901 858.15C195.901 857.571 195.784 857.067 195.551 856.638C195.317 856.209 195 855.882 194.599 855.658C194.207 855.425 193.773 855.308 193.297 855.308C192.821 855.308 192.387 855.42 191.995 855.644C191.603 855.868 191.29 856.195 191.057 856.624C190.823 857.053 190.707 857.557 190.707 858.136C190.707 858.724 190.823 859.237 191.057 859.676C191.29 860.105 191.603 860.437 191.995 860.67C192.387 860.894 192.821 861.006 193.297 861.006C193.773 861.006 194.207 860.894 194.599 860.67C195 860.437 195.317 860.105 195.551 859.676C195.784 859.237 195.901 858.729 195.901 858.15ZM202.699 854.188C203.278 854.188 203.8 854.314 204.267 854.566C204.734 854.809 205.098 855.177 205.359 855.672C205.63 856.167 205.765 856.769 205.765 857.478V862H204.505V857.66C204.505 856.895 204.314 856.311 203.931 855.91C203.548 855.499 203.026 855.294 202.363 855.294C201.691 855.294 201.154 855.504 200.753 855.924C200.361 856.344 200.165 856.955 200.165 857.758V862H198.891V851.64H200.165V855.42C200.417 855.028 200.762 854.725 201.201 854.51C201.649 854.295 202.148 854.188 202.699 854.188ZM208.95 855.378V859.9C208.95 860.273 209.029 860.539 209.188 860.698C209.346 860.847 209.622 860.922 210.014 860.922H210.952V862H209.804C209.094 862 208.562 861.837 208.208 861.51C207.853 861.183 207.676 860.647 207.676 859.9V855.378H206.682V854.328H207.676V852.396H208.95V854.328H210.952V855.378H208.95ZM214.761 862.126C214.173 862.126 213.646 862.028 213.179 861.832C212.712 861.627 212.344 861.347 212.073 860.992C211.802 860.628 211.653 860.213 211.625 859.746H212.941C212.978 860.129 213.156 860.441 213.473 860.684C213.8 860.927 214.224 861.048 214.747 861.048C215.232 861.048 215.615 860.941 215.895 860.726C216.175 860.511 216.315 860.241 216.315 859.914C216.315 859.578 216.166 859.331 215.867 859.172C215.568 859.004 215.106 858.841 214.481 858.682C213.912 858.533 213.445 858.383 213.081 858.234C212.726 858.075 212.418 857.847 212.157 857.548C211.905 857.24 211.779 856.839 211.779 856.344C211.779 855.952 211.896 855.593 212.129 855.266C212.362 854.939 212.694 854.683 213.123 854.496C213.552 854.3 214.042 854.202 214.593 854.202C215.442 854.202 216.128 854.417 216.651 854.846C217.174 855.275 217.454 855.863 217.491 856.61H216.217C216.189 856.209 216.026 855.887 215.727 855.644C215.438 855.401 215.046 855.28 214.551 855.28C214.094 855.28 213.73 855.378 213.459 855.574C213.188 855.77 213.053 856.027 213.053 856.344C213.053 856.596 213.132 856.806 213.291 856.974C213.459 857.133 213.664 857.263 213.907 857.366C214.159 857.459 214.504 857.567 214.943 857.688C215.494 857.837 215.942 857.987 216.287 858.136C216.632 858.276 216.926 858.491 217.169 858.78C217.421 859.069 217.552 859.447 217.561 859.914C217.561 860.334 217.444 860.712 217.211 861.048C216.978 861.384 216.646 861.65 216.217 861.846C215.797 862.033 215.312 862.126 214.761 862.126ZM223.465 855.574C223.689 855.135 224.006 854.795 224.417 854.552C224.837 854.309 225.345 854.188 225.943 854.188V855.504H225.607C224.179 855.504 223.465 856.279 223.465 857.828V862H222.191V854.328H223.465V855.574ZM233.963 857.87C233.963 858.113 233.949 858.369 233.921 858.64H227.789C227.836 859.396 228.092 859.989 228.559 860.418C229.035 860.838 229.609 861.048 230.281 861.048C230.832 861.048 231.289 860.922 231.653 860.67C232.026 860.409 232.288 860.063 232.437 859.634H233.809C233.604 860.371 233.193 860.973 232.577 861.44C231.961 861.897 231.196 862.126 230.281 862.126C229.553 862.126 228.9 861.963 228.321 861.636C227.752 861.309 227.304 860.847 226.977 860.25C226.65 859.643 226.487 858.943 226.487 858.15C226.487 857.357 226.646 856.661 226.963 856.064C227.28 855.467 227.724 855.009 228.293 854.692C228.872 854.365 229.534 854.202 230.281 854.202C231.009 854.202 231.653 854.361 232.213 854.678C232.773 854.995 233.202 855.434 233.501 855.994C233.809 856.545 233.963 857.17 233.963 857.87ZM232.647 857.604C232.647 857.119 232.54 856.703 232.325 856.358C232.11 856.003 231.816 855.737 231.443 855.56C231.079 855.373 230.673 855.28 230.225 855.28C229.581 855.28 229.03 855.485 228.573 855.896C228.125 856.307 227.868 856.876 227.803 857.604H232.647ZM237.91 862.126C237.322 862.126 236.795 862.028 236.328 861.832C235.862 861.627 235.493 861.347 235.222 860.992C234.952 860.628 234.802 860.213 234.774 859.746H236.09C236.128 860.129 236.305 860.441 236.622 860.684C236.949 860.927 237.374 861.048 237.896 861.048C238.382 861.048 238.764 860.941 239.044 860.726C239.324 860.511 239.464 860.241 239.464 859.914C239.464 859.578 239.315 859.331 239.016 859.172C238.718 859.004 238.256 858.841 237.63 858.682C237.061 858.533 236.594 858.383 236.23 858.234C235.876 858.075 235.568 857.847 235.306 857.548C235.054 857.24 234.928 856.839 234.928 856.344C234.928 855.952 235.045 855.593 235.278 855.266C235.512 854.939 235.843 854.683 236.272 854.496C236.702 854.3 237.192 854.202 237.742 854.202C238.592 854.202 239.278 854.417 239.8 854.846C240.323 855.275 240.603 855.863 240.64 856.61H239.366C239.338 856.209 239.175 855.887 238.876 855.644C238.587 855.401 238.195 855.28 237.7 855.28C237.243 855.28 236.879 855.378 236.608 855.574C236.338 855.77 236.202 856.027 236.202 856.344C236.202 856.596 236.282 856.806 236.44 856.974C236.608 857.133 236.814 857.263 237.056 857.366C237.308 857.459 237.654 857.567 238.092 857.688C238.643 857.837 239.091 857.987 239.436 858.136C239.782 858.276 240.076 858.491 240.318 858.78C240.57 859.069 240.701 859.447 240.71 859.914C240.71 860.334 240.594 860.712 240.36 861.048C240.127 861.384 239.796 861.65 239.366 861.846C238.946 862.033 238.461 862.126 237.91 862.126ZM249.058 857.87C249.058 858.113 249.044 858.369 249.016 858.64H242.884C242.931 859.396 243.188 859.989 243.654 860.418C244.13 860.838 244.704 861.048 245.376 861.048C245.927 861.048 246.384 860.922 246.748 860.67C247.122 860.409 247.383 860.063 247.532 859.634H248.904C248.699 860.371 248.288 860.973 247.672 861.44C247.056 861.897 246.291 862.126 245.376 862.126C244.648 862.126 243.995 861.963 243.416 861.636C242.847 861.309 242.399 860.847 242.072 860.25C241.746 859.643 241.582 858.943 241.582 858.15C241.582 857.357 241.741 856.661 242.058 856.064C242.376 855.467 242.819 855.009 243.388 854.692C243.967 854.365 244.63 854.202 245.376 854.202C246.104 854.202 246.748 854.361 247.308 854.678C247.868 854.995 248.298 855.434 248.596 855.994C248.904 856.545 249.058 857.17 249.058 857.87ZM247.742 857.604C247.742 857.119 247.635 856.703 247.42 856.358C247.206 856.003 246.912 855.737 246.538 855.56C246.174 855.373 245.768 855.28 245.32 855.28C244.676 855.28 244.126 855.485 243.668 855.896C243.22 856.307 242.964 856.876 242.898 857.604H247.742ZM251.563 855.574C251.787 855.135 252.105 854.795 252.515 854.552C252.935 854.309 253.444 854.188 254.041 854.188V855.504H253.705C252.277 855.504 251.563 856.279 251.563 857.828V862H250.289V854.328H251.563V855.574ZM257.918 860.824L260.298 854.328H261.656L258.646 862H257.162L254.152 854.328H255.524L257.918 860.824ZM269.459 857.87C269.459 858.113 269.445 858.369 269.417 858.64H263.285C263.331 859.396 263.588 859.989 264.055 860.418C264.531 860.838 265.105 861.048 265.777 861.048C266.327 861.048 266.785 860.922 267.149 860.67C267.522 860.409 267.783 860.063 267.933 859.634H269.305C269.099 860.371 268.689 860.973 268.073 861.44C267.457 861.897 266.691 862.126 265.777 862.126C265.049 862.126 264.395 861.963 263.817 861.636C263.247 861.309 262.799 860.847 262.473 860.25C262.146 859.643 261.983 858.943 261.983 858.15C261.983 857.357 262.141 856.661 262.459 856.064C262.776 855.467 263.219 855.009 263.789 854.692C264.367 854.365 265.03 854.202 265.777 854.202C266.505 854.202 267.149 854.361 267.709 854.678C268.269 854.995 268.698 855.434 268.997 855.994C269.305 856.545 269.459 857.17 269.459 857.87ZM268.143 857.604C268.143 857.119 268.035 856.703 267.821 856.358C267.606 856.003 267.312 855.737 266.939 855.56C266.575 855.373 266.169 855.28 265.721 855.28C265.077 855.28 264.526 855.485 264.069 855.896C263.621 856.307 263.364 856.876 263.299 857.604H268.143ZM270.214 858.136C270.214 857.352 270.373 856.666 270.69 856.078C271.007 855.481 271.441 855.019 271.992 854.692C272.552 854.365 273.177 854.202 273.868 854.202C274.465 854.202 275.021 854.342 275.534 854.622C276.047 854.893 276.439 855.252 276.71 855.7V851.64H277.998V862H276.71V860.558C276.458 861.015 276.085 861.393 275.59 861.692C275.095 861.981 274.517 862.126 273.854 862.126C273.173 862.126 272.552 861.958 271.992 861.622C271.441 861.286 271.007 860.815 270.69 860.208C270.373 859.601 270.214 858.911 270.214 858.136ZM276.71 858.15C276.71 857.571 276.593 857.067 276.36 856.638C276.127 856.209 275.809 855.882 275.408 855.658C275.016 855.425 274.582 855.308 274.106 855.308C273.63 855.308 273.196 855.42 272.804 855.644C272.412 855.868 272.099 856.195 271.866 856.624C271.633 857.053 271.516 857.557 271.516 858.136C271.516 858.724 271.633 859.237 271.866 859.676C272.099 860.105 272.412 860.437 272.804 860.67C273.196 860.894 273.63 861.006 274.106 861.006C274.582 861.006 275.016 860.894 275.408 860.67C275.809 860.437 276.127 860.105 276.36 859.676C276.593 859.237 276.71 858.729 276.71 858.15ZM282.618 860.978C283.804 860.026 284.732 859.247 285.404 858.64C286.076 858.024 286.641 857.385 287.098 856.722C287.565 856.05 287.798 855.392 287.798 854.748C287.798 854.141 287.649 853.665 287.35 853.32C287.061 852.965 286.59 852.788 285.936 852.788C285.302 852.788 284.807 852.989 284.452 853.39C284.107 853.782 283.92 854.309 283.892 854.972H282.66C282.698 853.927 283.015 853.119 283.612 852.55C284.21 851.981 284.98 851.696 285.922 851.696C286.884 851.696 287.644 851.962 288.204 852.494C288.774 853.026 289.058 853.759 289.058 854.692C289.058 855.467 288.825 856.223 288.358 856.96C287.901 857.688 287.378 858.332 286.79 858.892C286.202 859.443 285.451 860.087 284.536 860.824H289.352V861.888H282.618V860.978ZM290.375 856.834C290.375 855.229 290.636 853.978 291.159 853.082C291.681 852.177 292.596 851.724 293.903 851.724C295.2 851.724 296.11 852.177 296.633 853.082C297.155 853.978 297.417 855.229 297.417 856.834C297.417 858.467 297.155 859.737 296.633 860.642C296.11 861.547 295.2 862 293.903 862C292.596 862 291.681 861.547 291.159 860.642C290.636 859.737 290.375 858.467 290.375 856.834ZM296.157 856.834C296.157 856.022 296.101 855.336 295.989 854.776C295.886 854.207 295.667 853.749 295.331 853.404C295.004 853.059 294.528 852.886 293.903 852.886C293.268 852.886 292.783 853.059 292.447 853.404C292.12 853.749 291.901 854.207 291.789 854.776C291.686 855.336 291.635 856.022 291.635 856.834C291.635 857.674 291.686 858.379 291.789 858.948C291.901 859.517 292.12 859.975 292.447 860.32C292.783 860.665 293.268 860.838 293.903 860.838C294.528 860.838 295.004 860.665 295.331 860.32C295.667 859.975 295.886 859.517 295.989 858.948C296.101 858.379 296.157 857.674 296.157 856.834ZM298.561 860.978C299.747 860.026 300.675 859.247 301.347 858.64C302.019 858.024 302.584 857.385 303.041 856.722C303.508 856.05 303.741 855.392 303.741 854.748C303.741 854.141 303.592 853.665 303.293 853.32C303.004 852.965 302.533 852.788 301.879 852.788C301.245 852.788 300.75 852.989 300.395 853.39C300.05 853.782 299.863 854.309 299.835 854.972H298.603C298.641 853.927 298.958 853.119 299.555 852.55C300.153 851.981 300.923 851.696 301.865 851.696C302.827 851.696 303.587 851.962 304.147 852.494C304.717 853.026 305.001 853.759 305.001 854.692C305.001 855.467 304.768 856.223 304.301 856.96C303.844 857.688 303.321 858.332 302.733 858.892C302.145 859.443 301.394 860.087 300.479 860.824H305.295V861.888H298.561V860.978ZM306.289 854.426C306.355 853.567 306.686 852.895 307.283 852.41C307.881 851.925 308.655 851.682 309.607 851.682C310.242 851.682 310.788 851.799 311.245 852.032C311.712 852.256 312.062 852.564 312.295 852.956C312.538 853.348 312.659 853.791 312.659 854.286C312.659 854.865 312.491 855.364 312.155 855.784C311.829 856.204 311.399 856.475 310.867 856.596V856.666C311.474 856.815 311.955 857.109 312.309 857.548C312.664 857.987 312.841 858.561 312.841 859.27C312.841 859.802 312.72 860.283 312.477 860.712C312.235 861.132 311.871 861.463 311.385 861.706C310.9 861.949 310.317 862.07 309.635 862.07C308.646 862.07 307.834 861.813 307.199 861.3C306.565 860.777 306.21 860.04 306.135 859.088H307.367C307.433 859.648 307.661 860.105 308.053 860.46C308.445 860.815 308.968 860.992 309.621 860.992C310.275 860.992 310.769 860.824 311.105 860.488C311.451 860.143 311.623 859.699 311.623 859.158C311.623 858.458 311.39 857.954 310.923 857.646C310.457 857.338 309.752 857.184 308.809 857.184H308.487V856.12H308.823C309.682 856.111 310.331 855.971 310.769 855.7C311.208 855.42 311.427 854.991 311.427 854.412C311.427 853.917 311.264 853.521 310.937 853.222C310.62 852.923 310.163 852.774 309.565 852.774C308.987 852.774 308.52 852.923 308.165 853.222C307.811 853.521 307.601 853.922 307.535 854.426H306.289Z" fill="black"/>
</g>
<defs>
<clipPath id="clip0_427_2312">
<rect width="430" height="932" fill="white"/>
</clipPath>
</defs>
</svg>
