<svg width="274" height="272" viewBox="0 0 274 272" fill="none" xmlns="http://www.w3.org/2000/svg">
<path d="M128.655 30.9321C130.741 30.8565 132.765 30.9077 134.727 31.0857C136.624 31.0744 138.554 31.1578 140.516 31.3359C144.628 31.6276 148.457 32.0159 152.002 32.5008C155.547 32.9857 158.775 33.4724 161.687 33.9611C163.903 34.2641 165.865 34.4422 167.572 34.4953C169.47 34.484 171.271 34.1886 172.975 33.6093C174.679 33.0299 176.476 32.1021 178.366 30.8259C180.381 29.296 182.518 27.1962 184.779 24.5263C185.605 25.0906 186.431 25.655 187.256 26.2193C188.017 26.5942 188.905 27.0317 189.92 27.5316C186.091 32.4244 182.832 37.4403 180.143 42.5792C177.39 47.5289 175.015 52.3498 173.019 57.0419C171.027 62.3665 169.287 67.4998 167.798 72.4419C166.499 77.3197 165.264 82.3867 164.094 87.6432C162.799 93.1533 161.568 98.8529 160.401 104.742C159.359 110.377 158.536 115.41 157.929 119.841C157.831 124.522 158.012 128.473 158.474 131.696C158.936 134.919 159.429 137.92 159.951 140.7C160.345 143.101 161.149 145.468 162.365 147.801C163.516 149.945 166.249 152.079 170.562 154.203C171.304 151.416 172.655 149.795 174.612 149.341C176.695 148.633 178.498 148.654 180.02 149.404C181.922 150.025 183.289 151.25 184.122 153.079C185.08 154.655 185.343 156.361 184.911 158.197C184.479 160.034 183.604 161.81 182.286 163.526C180.969 165.241 179.3 166.548 177.282 167.445C173.245 169.24 168.844 168.413 164.08 164.962C162.046 163.33 160.041 161.16 158.064 158.452C156.277 155.68 154.802 152.273 153.64 148.232C152.731 144.317 152.01 140.02 151.476 135.343C151.131 130.602 151.073 126.08 151.3 121.778C151.289 119.88 151.149 117.604 150.88 114.95C150.801 112.23 150.882 109.985 151.124 108.212L62.2214 138.436C63.5202 144.12 65.423 150.339 67.9298 157.091C70.4366 163.844 73.2862 169.74 76.4786 174.781C80.629 181.397 85.5331 187.124 91.1908 191.96C96.8485 196.796 102.787 200.903 109.005 204.282C114.969 207.535 121.025 210.124 127.171 212.048C133.507 213.908 139.934 215.103 146.451 215.633C159.297 216.758 172.378 214.846 185.693 209.897C192.003 207.329 198.308 204.13 204.61 200.297C210.912 196.465 216.894 192.002 222.556 186.909C232.054 178.187 241.505 166.842 250.909 152.871L257.76 156.246C252.499 165.005 247.485 172.625 242.717 179.104C237.884 185.394 233.205 190.893 228.679 195.6C224.343 200.243 220.035 204.348 215.755 207.915C211.411 211.293 207.098 214.45 202.814 217.385C184.545 229.51 166.122 237.146 147.547 240.293C138.007 242.057 128.587 242.619 119.285 241.979C110.174 241.274 101.562 239.554 93.4501 236.82C76.7796 230.658 63.563 220.364 53.8004 205.939C48.4457 198.887 44.0037 191.102 40.4744 182.585C36.9451 174.068 34.3948 165.323 32.8235 156.352C31.1916 147.823 30.5102 139.605 30.7793 131.698C31.1735 123.536 32.2644 115.561 34.0522 107.771C36.1581 100.295 38.8983 93.132 42.2729 86.2812C45.8368 79.3661 50.1315 73.0475 55.1572 67.3254C58.8005 63.1294 62.637 59.5015 66.6666 56.4417C70.4424 53.2569 74.4417 50.4186 78.6644 47.9269C82.8227 45.2457 86.9829 42.8808 91.145 40.8322C103.949 35.0005 116.453 31.7005 128.655 30.9321ZM154.909 74.6058C154.368 68.6638 152.027 63.3334 147.888 58.6146C145.468 55.8461 142.48 53.2708 138.924 50.8886C135.493 48.2526 131.498 46.4423 126.939 45.4575C122.315 44.2833 117.316 43.8703 111.942 44.2186C106.757 44.5024 101.987 45.3846 97.6321 46.8652L96.7799 47.1549C92.2998 48.8892 88.2967 51.0951 84.7708 53.7724C81.4343 56.3854 78.2284 59.6933 75.1532 63.6962C72.2673 67.6347 69.4798 72.1734 66.7908 77.3124C64.2911 82.387 62.3633 87.9009 61.0073 93.8542C58.6059 104.81 58.615 116.953 61.0345 130.284L153.346 98.9018C153.217 98.5231 153.278 98.08 153.528 97.5726C154.009 93.3954 154.46 89.4398 154.88 85.7058C155.236 81.7823 155.246 78.0824 154.909 74.6058Z" fill="white"/>
</svg>
