<svg width="64" height="64" viewBox="0 0 64 64" fill="none" xmlns="http://www.w3.org/2000/svg">
<rect width="64" height="64" rx="20" fill="#BF8148"/>
<path d="M12 36V28C12 27.4696 12.2107 26.9609 12.5858 26.5858C12.9609 26.2107 13.4696 26 14 26H19.394C19.7891 26.0001 20.1753 25.8832 20.504 25.664L28.89 20.072C29.1915 19.8709 29.542 19.7554 29.904 19.738C30.266 19.7206 30.6259 19.8019 30.9453 19.9732C31.2647 20.1445 31.5315 20.3994 31.7173 20.7106C31.9031 21.0218 32.0008 21.3776 32 21.74V42.26C32.0001 42.6221 31.9018 42.9774 31.7157 43.288C31.5297 43.5987 31.2628 43.8529 30.9435 44.0238C30.6243 44.1946 30.2646 44.2755 29.903 44.258C29.5413 44.2404 29.1912 44.125 28.89 43.924L20.504 38.334C20.1751 38.1156 19.7889 37.9993 19.394 38H14C13.4696 38 12.9609 37.7893 12.5858 37.4142C12.2107 37.0392 12 36.5305 12 36V36Z" stroke="white" stroke-width="1.5"/>
<path d="M41 23C41 23 44 26 44 31C44 36 41 39 41 39M47 17C47 17 52 22 52 31C52 40 47 45 47 45" stroke="white" stroke-width="1.5" stroke-linecap="round" stroke-linejoin="round"/>
</svg>
