<svg width="323" height="281" viewBox="0 0 323 281" fill="none" xmlns="http://www.w3.org/2000/svg">
<g clip-path="url(#clip0_1200_1109)">
<rect width="323" height="281" rx="30" fill="#410000"/>
<path d="M130.296 124.448C128.71 124.448 127.235 124.196 125.872 123.692C124.528 123.188 123.362 122.479 122.372 121.564C121.383 120.631 120.608 119.539 120.048 118.288C119.507 117.037 119.236 115.675 119.236 114.2C119.236 112.707 119.507 111.344 120.048 110.112C120.608 108.861 121.383 107.779 122.372 106.864C123.362 105.931 124.528 105.212 125.872 104.708C127.235 104.204 128.71 103.952 130.296 103.952C131.902 103.952 133.376 104.204 134.72 104.708C136.064 105.212 137.231 105.931 138.22 106.864C139.21 107.779 139.975 108.861 140.516 110.112C141.076 111.344 141.356 112.707 141.356 114.2C141.356 115.675 141.076 117.037 140.516 118.288C139.975 119.539 139.21 120.631 138.22 121.564C137.231 122.479 136.064 123.188 134.72 123.692C133.376 124.196 131.902 124.448 130.296 124.448ZM130.296 119.1C130.912 119.1 131.482 118.988 132.004 118.764C132.546 118.54 133.012 118.223 133.404 117.812C133.815 117.383 134.132 116.869 134.356 116.272C134.58 115.656 134.692 114.965 134.692 114.2C134.692 113.435 134.58 112.753 134.356 112.156C134.132 111.54 133.815 111.027 133.404 110.616C133.012 110.187 132.546 109.86 132.004 109.636C131.482 109.412 130.912 109.3 130.296 109.3C129.68 109.3 129.102 109.412 128.56 109.636C128.038 109.86 127.571 110.187 127.16 110.616C126.768 111.027 126.46 111.54 126.236 112.156C126.012 112.753 125.9 113.435 125.9 114.2C125.9 114.965 126.012 115.656 126.236 116.272C126.46 116.869 126.768 117.383 127.16 117.812C127.571 118.223 128.038 118.54 128.56 118.764C129.102 118.988 129.68 119.1 130.296 119.1ZM151.2 124.28C149.464 124.28 147.924 123.944 146.58 123.272C145.255 122.581 144.21 121.639 143.444 120.444C142.679 119.249 142.296 117.877 142.296 116.328C142.296 114.779 142.679 113.407 143.444 112.212C144.21 111.017 145.255 110.084 146.58 109.412C147.924 108.74 149.464 108.404 151.2 108.404C152.936 108.404 154.476 108.74 155.82 109.412C157.164 110.084 158.21 111.017 158.956 112.212C159.722 113.407 160.104 114.779 160.104 116.328C160.104 117.877 159.722 119.249 158.956 120.444C158.21 121.639 157.164 122.581 155.82 123.272C154.476 123.944 152.936 124.28 151.2 124.28ZM151.2 119.352C151.667 119.352 152.087 119.24 152.46 119.016C152.834 118.792 153.132 118.456 153.356 118.008C153.58 117.541 153.692 116.981 153.692 116.328C153.692 115.656 153.58 115.105 153.356 114.676C153.132 114.228 152.834 113.892 152.46 113.668C152.087 113.444 151.667 113.332 151.2 113.332C150.734 113.332 150.314 113.444 149.94 113.668C149.567 113.892 149.268 114.228 149.044 114.676C148.82 115.105 148.708 115.656 148.708 116.328C148.708 116.981 148.82 117.541 149.044 118.008C149.268 118.456 149.567 118.792 149.94 119.016C150.314 119.24 150.734 119.352 151.2 119.352ZM171.854 124.28C170.529 124.28 169.428 124 168.55 123.44C167.692 122.861 167.057 121.993 166.646 120.836C166.236 119.66 166.03 118.167 166.03 116.356C166.03 114.508 166.217 113.005 166.59 111.848C166.982 110.672 167.608 109.804 168.466 109.244C169.325 108.684 170.454 108.404 171.854 108.404C173.198 108.404 174.43 108.731 175.55 109.384C176.67 110.019 177.566 110.933 178.238 112.128C178.91 113.304 179.246 114.713 179.246 116.356C179.246 117.999 178.91 119.417 178.238 120.612C177.566 121.788 176.67 122.693 175.55 123.328C174.43 123.963 173.198 124.28 171.854 124.28ZM161.634 129.432V108.684H167.654V110.756L167.682 116.356L167.962 121.956V129.432H161.634ZM170.342 119.352C170.809 119.352 171.229 119.24 171.602 119.016C171.976 118.792 172.274 118.456 172.498 118.008C172.722 117.56 172.834 117.009 172.834 116.356C172.834 115.684 172.722 115.124 172.498 114.676C172.274 114.228 171.976 113.892 171.602 113.668C171.229 113.444 170.809 113.332 170.342 113.332C169.876 113.332 169.456 113.444 169.082 113.668C168.709 113.892 168.41 114.228 168.186 114.676C167.962 115.124 167.85 115.684 167.85 116.356C167.85 117.009 167.962 117.56 168.186 118.008C168.41 118.456 168.709 118.792 169.082 119.016C169.456 119.24 169.876 119.352 170.342 119.352ZM186.781 124.28C185.475 124.28 184.187 124.14 182.917 123.86C181.648 123.58 180.621 123.216 179.837 122.768L181.573 118.596C182.301 119.025 183.141 119.361 184.093 119.604C185.064 119.847 186.007 119.968 186.921 119.968C187.687 119.968 188.2 119.903 188.461 119.772C188.741 119.641 188.881 119.464 188.881 119.24C188.881 119.016 188.723 118.857 188.405 118.764C188.088 118.652 187.668 118.568 187.145 118.512C186.623 118.456 186.044 118.391 185.409 118.316C184.793 118.223 184.168 118.092 183.533 117.924C182.899 117.756 182.32 117.504 181.797 117.168C181.275 116.832 180.855 116.384 180.537 115.824C180.22 115.245 180.061 114.517 180.061 113.64C180.061 112.669 180.351 111.792 180.929 111.008C181.527 110.224 182.404 109.599 183.561 109.132C184.737 108.647 186.184 108.404 187.901 108.404C189.021 108.404 190.141 108.507 191.261 108.712C192.381 108.917 193.343 109.235 194.145 109.664L192.409 113.836C191.625 113.407 190.851 113.117 190.085 112.968C189.339 112.8 188.639 112.716 187.985 112.716C187.183 112.716 186.632 112.791 186.333 112.94C186.053 113.089 185.913 113.257 185.913 113.444C185.913 113.668 186.072 113.836 186.389 113.948C186.707 114.06 187.127 114.144 187.649 114.2C188.172 114.256 188.741 114.331 189.357 114.424C189.992 114.499 190.617 114.629 191.233 114.816C191.868 114.984 192.447 115.236 192.969 115.572C193.492 115.908 193.912 116.365 194.229 116.944C194.547 117.504 194.705 118.223 194.705 119.1C194.705 120.015 194.416 120.873 193.837 121.676C193.259 122.46 192.381 123.095 191.205 123.58C190.029 124.047 188.555 124.28 186.781 124.28ZM196.647 116.496L195.387 104.4H202.947L201.687 116.496H196.647ZM199.167 124.28C198.084 124.28 197.198 123.953 196.507 123.3C195.816 122.628 195.471 121.835 195.471 120.92C195.471 119.987 195.816 119.203 196.507 118.568C197.198 117.933 198.084 117.616 199.167 117.616C200.268 117.616 201.155 117.933 201.827 118.568C202.518 119.203 202.863 119.987 202.863 120.92C202.863 121.835 202.518 122.628 201.827 123.3C201.155 123.953 200.268 124.28 199.167 124.28Z" fill="white"/>
<path d="M311.667 136.833H220.333C182.556 136.833 151.833 167.556 151.833 205.333V353.75C151.833 356.778 153.036 359.682 155.177 361.823C157.318 363.964 160.222 365.167 163.25 365.167H311.667C349.445 365.167 380.167 334.444 380.167 296.667V205.333C380.167 167.556 349.445 136.833 311.667 136.833ZM357.333 296.667C357.333 321.852 336.852 342.333 311.667 342.333H174.667V205.333C174.667 180.148 195.148 159.667 220.333 159.667H311.667C336.852 159.667 357.333 180.148 357.333 205.333V296.667Z" fill="white" fill-opacity="0.1"/>
<path d="M313 217.428L299.572 204L266 237.572L232.428 204L219 217.428L252.572 251L219 284.572L232.428 298L266 264.428L299.572 298L313 284.572L279.428 251L313 217.428Z" fill="white" fill-opacity="0.1"/>
</g>
<rect x="1" y="1" width="321" height="279" rx="29" stroke="white" stroke-width="2"/>
<defs>
<clipPath id="clip0_1200_1109">
<rect width="323" height="281" rx="30" fill="white"/>
</clipPath>
</defs>
</svg>
