<svg width="430" height="932" viewBox="0 0 430 932" fill="none" xmlns="http://www.w3.org/2000/svg">
<g clip-path="url(#clip0_427_2312)">
<rect width="430" height="932" fill="white"/>
<path fill-rule="evenodd" clip-rule="evenodd" d="M23.6804 471.739C69.3662 463.612 112.58 433.401 158.305 441.307C203.551 449.129 243.181 480.288 273.318 514.898C302.873 548.841 299.141 602.732 328.54 636.811C368.478 683.105 459.069 687.413 473.399 746.827C486.628 801.678 414.235 841.57 390.245 892.647C369.663 936.468 359.803 983.332 341.304 1028.07C319.14 1081.67 322.286 1160.99 269.399 1184.9C212.826 1210.48 151.616 1147.69 89.7985 1141.8C44.5069 1137.48 -0.721191 1165.81 -44.8933 1154.92C-88.9133 1144.07 -113.614 1092.1 -157.526 1080.82C-222.209 1064.2 -298.754 1109.16 -356.098 1074.96C-406.421 1044.94 -441.986 975.207 -431 917.693C-417.847 848.832 -334.084 817.594 -295.726 758.89C-274.298 726.096 -268.578 686.469 -255.735 649.468C-241.484 608.413 -245.776 557.598 -215.147 526.744C-184.798 496.171 -135.569 495.783 -93.5695 486.11C-54.8702 477.197 -15.4191 478.694 23.6804 471.739Z" fill="#003441"/>
<path fill-rule="evenodd" clip-rule="evenodd" d="M244.68 1185.26C290.366 1193.39 333.58 1223.6 379.305 1215.69C424.551 1207.87 464.181 1176.71 494.318 1142.1C523.873 1108.16 520.141 1054.27 549.54 1020.19C589.478 973.895 680.069 969.587 694.399 910.173C707.628 855.322 635.235 815.43 611.245 764.353C590.663 720.532 580.803 673.668 562.304 628.93C540.14 575.33 543.286 496.014 490.399 472.099C433.826 446.518 372.616 509.306 310.798 515.204C265.507 519.524 220.279 491.19 176.107 502.081C132.087 512.935 107.386 564.901 63.4741 576.184C-1.20876 592.803 -77.7541 547.836 -135.098 582.041C-185.421 612.058 -220.986 681.793 -210 739.307C-196.847 808.168 -113.084 839.406 -74.7262 898.11C-53.2975 930.904 -47.5779 970.531 -34.7346 1007.53C-20.4844 1048.59 -24.7757 1099.4 5.85275 1130.26C36.2021 1160.83 85.4314 1161.22 127.43 1170.89C166.13 1179.8 205.581 1178.31 244.68 1185.26Z" fill="#BF8148"/>
<path d="M422.172 575.921C426.345 575.769 430.393 575.872 434.317 576.228C438.112 576.205 441.971 576.372 445.894 576.728C454.12 577.312 461.777 578.088 468.866 579.058C475.956 580.028 482.413 581.001 488.237 581.979C492.668 582.585 496.592 582.941 500.008 583.047C503.802 583.024 507.404 582.434 510.812 581.275C514.221 580.116 517.815 578.261 521.594 575.708C525.624 572.649 529.9 568.449 534.422 563.109C536.073 564.238 537.724 565.366 539.375 566.495C540.897 567.245 542.673 568.12 544.703 569.12C537.045 578.905 530.527 588.937 525.149 599.215C519.643 609.114 514.893 618.756 510.901 628.14C506.917 638.789 503.436 649.056 500.459 658.94C497.861 668.696 495.391 678.83 493.051 689.343C490.46 700.363 487.998 711.762 485.665 723.54C483.581 734.81 481.934 744.876 480.721 753.738C480.524 763.1 480.887 771.003 481.811 777.449C482.735 783.895 483.72 789.897 484.765 795.457C485.552 800.259 487.161 804.993 489.593 809.659C491.895 813.946 497.36 818.214 505.987 822.463C507.471 816.889 510.172 813.647 514.087 812.738C518.253 811.322 521.859 811.364 524.903 812.864C528.706 814.106 531.44 816.556 533.106 820.215C535.022 823.366 535.548 826.778 534.685 830.451C533.821 834.125 532.071 837.677 529.436 841.108C526.8 844.539 523.463 847.152 519.426 848.947C511.352 852.537 502.551 850.882 493.023 843.981C488.955 840.717 484.945 836.376 480.991 830.961C477.417 825.416 474.467 818.603 472.142 810.521C470.324 802.69 468.882 794.097 467.814 784.743C467.125 775.26 467.008 766.216 467.463 757.612C467.44 753.817 467.16 749.265 466.622 743.956C466.464 738.517 466.627 734.026 467.111 730.481L289.305 790.928C291.903 802.297 295.709 814.734 300.722 828.239C305.736 841.744 311.435 853.537 317.82 863.619C326.121 876.851 335.929 888.304 347.244 897.976C358.56 907.649 370.436 915.863 382.872 922.62C394.801 929.127 406.912 934.304 419.205 938.152C431.877 941.872 444.73 944.262 457.765 945.322C483.457 947.573 509.618 943.749 536.249 933.85C548.868 928.715 561.479 922.316 574.083 914.651C586.686 906.986 598.65 898.061 609.974 887.874C628.971 870.431 647.873 847.74 666.68 819.799L680.382 826.548C669.861 844.067 659.832 859.306 650.296 872.265C640.631 884.845 631.272 895.843 622.221 905.257C613.548 914.543 604.932 922.753 596.373 929.887C587.685 936.643 579.058 942.956 570.491 948.826C533.953 973.077 497.108 988.349 459.956 994.642C440.876 998.171 422.036 999.295 403.434 998.014C385.21 996.605 367.987 993.165 351.763 987.696C318.422 975.372 291.989 954.784 272.463 925.934C261.754 911.83 252.87 896.261 245.811 879.227C238.753 862.192 233.652 844.703 230.51 826.76C227.246 809.702 225.883 793.266 226.421 777.452C227.21 761.129 229.391 745.178 232.967 729.598C237.179 714.647 242.659 700.32 249.408 686.619C256.536 672.789 265.126 660.152 275.177 648.707C282.464 640.315 290.137 633.06 298.196 626.94C305.747 620.57 313.746 614.894 322.191 609.91C330.508 604.548 338.828 599.818 347.153 595.721C372.761 584.058 397.768 577.457 422.172 575.921ZM474.68 663.268C473.598 651.384 468.917 640.723 460.639 631.286C455.799 625.749 449.823 620.598 442.711 615.834C435.849 610.562 427.859 606.941 418.74 604.971C409.492 602.623 399.494 601.797 388.746 602.494C378.377 603.061 368.837 604.826 360.127 607.787L358.422 608.366C349.462 611.835 341.456 616.247 334.404 621.601C327.731 626.827 321.319 633.443 315.169 641.449C309.397 649.326 303.822 658.403 298.444 668.681C293.445 678.83 289.589 689.858 286.877 701.765C282.074 723.677 282.093 747.963 286.931 774.625L471.554 711.86C471.297 711.103 471.418 710.217 471.918 709.202C472.88 700.847 473.782 692.936 474.623 685.468C475.335 677.621 475.354 670.221 474.68 663.268Z" fill="white" fill-opacity="0.1"/>
<path d="M207.752 201.395C209.143 201.345 210.493 201.379 211.8 201.498C213.065 201.49 214.352 201.546 215.659 201.665C218.401 201.859 220.954 202.118 223.317 202.441C225.68 202.764 227.832 203.089 229.774 203.415C231.251 203.617 232.559 203.735 233.697 203.771C234.962 203.763 236.163 203.566 237.299 203.18C238.435 202.794 239.633 202.175 240.893 201.325C242.236 200.305 243.661 198.905 245.169 197.125C245.719 197.501 246.269 197.877 246.82 198.253C247.327 198.503 247.919 198.795 248.596 199.128C246.043 202.39 243.871 205.734 242.078 209.16C240.242 212.46 238.659 215.674 237.329 218.802C236 222.352 234.84 225.774 233.848 229.069C232.982 232.32 232.159 235.698 231.378 239.203C230.515 242.876 229.694 246.676 228.916 250.602C228.222 254.359 227.673 257.714 227.269 260.668C227.203 263.788 227.324 266.423 227.632 268.571C227.94 270.72 228.268 272.721 228.616 274.574C228.879 276.175 229.415 277.753 230.226 279.308C230.993 280.737 232.815 282.16 235.69 283.576C236.185 281.718 237.085 280.637 238.391 280.335C239.779 279.862 240.981 279.876 241.996 280.376C243.263 280.79 244.175 281.607 244.73 282.827C245.369 283.877 245.544 285.014 245.256 286.239C244.968 287.463 244.385 288.647 243.507 289.791C242.628 290.935 241.516 291.806 240.17 292.404C237.479 293.601 234.545 293.049 231.369 290.749C230.013 289.661 228.676 288.214 227.359 286.409C226.167 284.561 225.184 282.289 224.409 279.596C223.803 276.985 223.322 274.121 222.966 271.003C222.736 267.842 222.697 264.827 222.849 261.959C222.841 260.694 222.748 259.177 222.569 257.407C222.516 255.594 222.57 254.097 222.732 252.915L163.463 273.065C164.329 276.854 165.598 281 167.269 285.501C168.94 290.003 170.84 293.934 172.968 297.295C175.735 301.705 179.004 305.523 182.776 308.747C186.548 311.971 190.507 314.71 194.652 316.962C198.629 319.131 202.666 320.856 206.763 322.139C210.987 323.379 215.271 324.176 219.616 324.529C228.18 325.279 236.901 324.005 245.778 320.705C249.984 318.994 254.188 316.86 258.389 314.305C262.59 311.751 266.578 308.775 270.353 305.38C276.685 299.565 282.986 292.002 289.255 282.688L293.822 284.938C290.315 290.777 286.972 295.857 283.793 300.177C280.572 304.37 277.452 308.036 274.435 311.174C271.544 314.269 268.672 317.006 265.819 319.384C262.923 321.636 260.047 323.74 257.192 325.697C245.012 333.781 232.731 338.871 220.347 340.969C213.987 342.145 207.707 342.52 201.506 342.093C195.431 341.623 189.69 340.477 184.282 338.654C173.169 334.546 164.358 327.683 157.849 318.066C154.279 313.365 151.318 308.175 148.965 302.497C146.612 296.819 144.912 290.989 143.865 285.008C142.777 279.323 142.322 273.844 142.502 268.572C142.765 263.131 143.492 257.814 144.684 252.621C146.088 247.637 147.914 242.862 150.164 238.295C152.54 233.685 155.403 229.472 158.754 225.658C161.183 222.86 163.74 220.442 166.427 218.402C168.944 216.279 171.61 214.386 174.425 212.725C177.197 210.938 179.971 209.361 182.746 207.995C191.282 204.108 199.617 201.908 207.752 201.395ZM225.255 230.511C224.894 226.55 223.334 222.996 220.574 219.85C218.961 218.005 216.969 216.288 214.599 214.7C212.311 212.942 209.648 211.735 206.608 211.079C203.525 210.296 200.193 210.021 196.61 210.253C193.154 210.442 189.974 211.03 187.07 212.017L186.502 212.211C183.515 213.367 180.847 214.837 178.496 216.622C176.272 218.364 174.135 220.569 172.084 223.238C170.16 225.864 168.302 228.89 166.509 232.316C164.843 235.699 163.558 239.375 162.654 243.343C161.053 250.647 161.059 258.743 162.672 267.63L224.213 246.708C224.127 246.456 224.167 246.161 224.334 245.822C224.655 243.038 224.955 240.4 225.236 237.911C225.473 235.295 225.48 232.829 225.255 230.511Z" fill="#BF8148"/>
</g>
<defs>
<clipPath id="clip0_427_2312">
<rect width="430" height="932" fill="white"/>
</clipPath>
</defs>
</svg>
